<?xml version="1.0" encoding="UTF-8"?>
<svg id="Layer_2" data-name="Layer 2" xmlns="http://www.w3.org/2000/svg" viewBox="0 0 1460.88 458.32">
  <defs>
    <style>
      .cls-1, .cls-2 {
        opacity: .5;
      }

      .cls-2 {
        fill: #6f8b9b;
        stroke-width: 0px;
      }
    </style>
  </defs>
  <g id="Layer_1-2" data-name="Layer 1">
    <g class="cls-1">
      <path class="cls-2" d="M1294.29,59c-1.74-1.51-2.76-3.65-2.69-5.95.44-14.38-8.59-29.11-27.14-29.11-4.34,0-8.15.81-11.44,2.24-4.2,1.82-9.05-.53-10.03-5-2.5-11.4-11.3-21.18-26.41-21.18s-24.22,10.15-26.54,21.83c-.77,3.9-4.55,6.29-8.49,5.67-1.54-.24-3.17-.37-4.88-.37-15.11,0-23.91,9.81-26.41,21.23-.73,3.36-3.67,5.77-7.11,5.77h0c-28.16,0-28.2,43.76,0,43.76h137.26c22.33,0,26.97-27.5,13.88-38.9Z"/>
      <path class="cls-2" d="M172.28,222.94c-1.74-1.51-2.76-3.65-2.69-5.95.44-14.38-8.59-29.11-27.14-29.11-4.34,0-8.15.81-11.44,2.24-4.2,1.82-9.05-.53-10.03-5-2.5-11.4-11.3-21.18-26.41-21.18s-24.22,10.15-26.54,21.83c-.77,3.9-4.55,6.29-8.49,5.67-1.54-.24-3.17-.37-4.88-.37-15.11,0-23.91,9.81-26.41,21.23-.73,3.36-3.67,5.77-7.11,5.77h0c-28.16,0-28.2,43.76,0,43.76h137.26c22.33,0,26.97-27.5,13.88-38.9Z"/>
      <path class="cls-2" d="M1097.63,421.96c-.51-11.38-9.23-21-21-21h-.41c-2.4-18.5-17.16-33.53-36.69-33.53-11.79,0-23.27,6.32-30.25,15.78-4.31-3.37-9.96-5.46-16.97-5.46-18.96,0-28.07,15.29-27.36,30-2.46-1.38-5.38-2.26-8.88-2.26-21.07,0-23.2,29.29-6.45,35.34,1.53,1.14,3.5,1.85,5.93,1.85l121.08.29c10.98,0,21.51-9.66,21-21Z"/>
      <path class="cls-2" d="M1443.79,422.94c-5.28,0-9.33,1.92-12.16,4.84-1.31-9.05-7.83-17.2-19.65-17.2-13.79,0-20.41,11.12-19.89,21.82-1.79-1-3.91-1.64-6.46-1.64-15.32,0-16.87,21.3-4.69,25.7,1.11.83,2.55,1.34,4.31,1.34h54.02c1.4.33,2.89.53,4.52.53,1.78,0,3.4-.24,4.9-.64,1.56-.15,2.83-.69,3.81-1.53,13.54-7.68,10.67-33.22-8.71-33.22Z"/>
      <path class="cls-2" d="M305.67,320.12c-5.28,0-9.33,1.92-12.16,4.84-1.31-9.05-7.83-17.2-19.65-17.2-13.79,0-20.41,11.12-19.89,21.82-1.79-1-3.91-1.64-6.46-1.64-15.32,0-16.87,21.3-4.69,25.7,1.11.83,2.55,1.34,4.31,1.34h54.02c1.4.33,2.89.53,4.52.53,1.78,0,3.4-.24,4.9-.64,1.56-.15,2.83-.69,3.81-1.53,13.54-7.68,10.67-33.22-8.71-33.22Z"/>
      <path class="cls-2" d="M631.8,314.18c8.01,0,14.14,2.91,18.43,7.34,1.99-13.73,11.88-26.08,29.79-26.08,20.9,0,30.94,16.85,30.16,33.07,2.71-1.52,5.93-2.49,9.79-2.49,23.22,0,25.58,32.29,7.11,38.96-1.68,1.26-3.86,2.04-6.54,2.04h-81.89c-2.12.51-4.39.81-6.86.81-2.7,0-5.16-.36-7.43-.96-2.37-.22-4.29-1.05-5.78-2.32-20.53-11.64-16.17-50.36,13.21-50.36Z"/>
    </g>
  </g>
</svg>