<?xml version="1.0" encoding="UTF-8"?>
<svg id="Layer_2" data-name="Layer 2" xmlns="http://www.w3.org/2000/svg" viewBox="0 0 1370.54 409.2">
  <defs>
    <style>
      .cls-1 {
        fill: #fff3b5;
        opacity: .6;
        stroke-width: 0px;
      }
    </style>
  </defs>
  <g id="Layer_1-2" data-name="Layer 1">
    <g>
      <path class="cls-1" d="M1176.56,379.25h168.09c34.54,0,34.48-53.59,0-53.59h0c-4.21,0-7.81-2.95-8.71-7.07-3.06-13.99-13.83-26-32.34-26-2.09,0-4.08.16-5.98.45-4.81.76-9.44-2.16-10.39-6.94-2.83-14.3-13.66-26.74-32.5-26.74s-29.28,11.97-32.35,25.93c-1.2,5.47-7.14,8.35-12.28,6.12-4.03-1.75-8.7-2.74-14.01-2.74-22.72,0-33.78,18.03-33.24,35.64.09,2.82-1.17,5.43-3.3,7.29-16.03,13.95-10.35,47.63,16.99,47.63Z"/>
      <path class="cls-1" d="M790.66,366.53c-1.91-1.66-3.03-4-2.96-6.53.48-15.78-9.43-31.93-29.78-31.93-4.76,0-8.94.89-12.55,2.45-4.61,1.99-9.93-.58-11-5.49-2.74-12.51-12.39-23.23-28.97-23.23s-26.57,11.14-29.11,23.95c-.85,4.28-5,6.9-9.31,6.22-1.69-.27-3.48-.41-5.35-.41-16.58,0-26.23,10.76-28.97,23.29-.81,3.69-4.03,6.33-7.8,6.33h0c-30.89,0-30.94,48,0,48h150.57c24.49,0,29.58-30.17,15.22-42.67Z"/>
      <path class="cls-1" d="M188.98,168.07c-1.91-1.66-3.03-4-2.96-6.53.48-15.78-9.43-31.93-29.78-31.93-4.76,0-8.94.89-12.55,2.45-4.61,1.99-9.93-.58-11-5.49-2.74-12.51-12.39-23.23-28.97-23.23s-26.57,11.14-29.11,23.95c-.85,4.28-5,6.9-9.31,6.22-1.69-.27-3.48-.41-5.35-.41-16.58,0-26.23,10.76-28.97,23.29-.81,3.69-4.03,6.33-7.8,6.33h0c-30.89,0-30.94,48,0,48h150.57c24.49,0,29.58-30.17,15.22-42.67Z"/>
      <path class="cls-1" d="M405.32,85.68c-5.28,0-9.33,1.92-12.16,4.84-1.31-9.05-7.83-17.2-19.65-17.2-13.79,0-20.41,11.12-19.89,21.82-1.79-1-3.91-1.64-6.46-1.64-15.32,0-16.87,21.3-4.69,25.7,1.11.83,2.55,1.34,4.31,1.34h54.02c1.4.33,2.89.53,4.52.53,1.78,0,3.4-.24,4.9-.64,1.56-.15,2.83-.69,3.81-1.53,13.54-7.68,10.67-33.22-8.71-33.22Z"/>
      <path class="cls-1" d="M1073.83,12.36c-5.28,0-9.33,1.92-12.16,4.84-1.31-9.05-7.83-17.2-19.65-17.2-13.79,0-20.41,11.12-19.89,21.82-1.79-1-3.91-1.64-6.46-1.64-15.32,0-16.87,21.3-4.69,25.7,1.11.83,2.55,1.34,4.31,1.34h54.02c1.4.33,2.89.53,4.52.53,1.78,0,3.4-.24,4.9-.64,1.56-.15,2.83-.69,3.81-1.53,13.54-7.68,10.67-33.22-8.71-33.22Z"/>
      <path class="cls-1" d="M756.34,157.04h116.64c23.97,0,23.93-37.18,0-37.18h0c-2.92,0-5.42-2.05-6.04-4.9-2.12-9.71-9.6-18.04-22.44-18.04-1.45,0-2.83.11-4.15.32-3.34.52-6.55-1.5-7.21-4.82-1.97-9.93-9.48-18.55-22.55-18.55-12.84,0-20.32,8.31-22.44,17.99-.83,3.8-4.95,5.79-8.52,4.25-2.8-1.21-6.04-1.9-9.72-1.9-15.76,0-23.44,12.51-23.06,24.73.06,1.96-.81,3.77-2.29,5.06-11.13,9.68-7.18,33.05,11.79,33.05Z"/>
    </g>
  </g>
</svg>