<?xml version="1.0" encoding="UTF-8"?>
<svg id="Layer_2" data-name="Layer 2" xmlns="http://www.w3.org/2000/svg" viewBox="0 0 1049.44 439.59">
  <defs>
    <style>
      .cls-1 {
        fill: #d4c5b6;
      }

      .cls-1, .cls-2 {
        stroke-width: 0px;
      }

      .cls-2 {
        fill: #fff3b5;
      }
    </style>
  </defs>
  <g id="Layer_1-2" data-name="Layer 1">
    <g>
      <path class="cls-2" d="M866,335.53h150.52c30.93,0,30.88-47.99,0-47.99h0c-3.77,0-6.99-2.64-7.8-6.33-2.74-12.53-12.38-23.28-28.96-23.28-1.87,0-3.66.14-5.35.41-4.31.68-8.46-1.94-9.31-6.22-2.54-12.81-12.23-23.94-29.1-23.94s-26.22,10.72-28.96,23.22c-1.07,4.9-6.39,7.48-11,5.48-3.61-1.56-7.79-2.45-12.55-2.45-20.34,0-30.25,16.14-29.76,31.92.08,2.53-1.05,4.87-2.95,6.53-14.36,12.49-9.27,42.65,15.22,42.65Z"/>
      <path class="cls-1" d="M867.07,47.71c-1.41-1.22-2.24-2.95-2.18-4.81.36-11.63-6.95-23.54-21.95-23.54-3.51,0-6.59.66-9.25,1.81-3.4,1.47-7.32-.43-8.11-4.04-2.02-9.22-9.14-17.13-21.36-17.13s-19.59,8.21-21.46,17.66c-.63,3.16-3.68,5.09-6.86,4.59-1.25-.2-2.56-.3-3.95-.3-12.22,0-19.33,7.93-21.35,17.17-.59,2.72-2.97,4.67-5.75,4.67h0c-22.77,0-22.81,35.39,0,35.39h111c18.05,0,21.81-22.24,11.22-31.45Z"/>
      <path class="cls-2" d="M428.17,365.64c-1.17-1.02-1.86-2.46-1.82-4.01.3-9.69-5.79-19.61-18.29-19.61-2.92,0-5.49.55-7.71,1.51-2.83,1.22-6.1-.36-6.76-3.37-1.69-7.68-7.61-14.27-17.8-14.27s-16.32,6.84-17.88,14.71c-.52,2.63-3.07,4.24-5.72,3.82-1.04-.16-2.14-.25-3.29-.25-10.18,0-16.11,6.61-17.79,14.31-.49,2.26-2.48,3.89-4.79,3.89h0c-18.97,0-19,29.49,0,29.49h92.49c15.04,0,18.17-18.53,9.35-26.21Z"/>
      <path class="cls-2" d="M116.08,53.26c-1.17-1.02-1.86-2.46-1.82-4.01.3-9.69-5.79-19.61-18.29-19.61-2.92,0-5.49.55-7.71,1.51-2.83,1.22-6.1-.36-6.76-3.37-1.69-7.68-7.61-14.27-17.8-14.27s-16.32,6.84-17.88,14.71c-.52,2.63-3.07,4.24-5.72,3.82-1.04-.16-2.14-.25-3.29-.25-10.18,0-16.11,6.61-17.79,14.31-.49,2.26-2.48,3.89-4.79,3.89h0c-18.97,0-19,29.49,0,29.49h92.49c15.04,0,18.17-18.53,9.35-26.21Z"/>
      <path class="cls-2" d="M463.34,100.08h84.82c17.43,0,17.4-27.04,0-27.04h0c-2.13,0-3.94-1.49-4.4-3.57-1.54-7.06-6.98-13.12-16.32-13.12-1.06,0-2.06.08-3.02.23-2.43.38-4.77-1.09-5.24-3.5-1.43-7.22-6.89-13.49-16.4-13.49s-14.78,6.04-16.32,13.09c-.61,2.76-3.6,4.21-6.2,3.09-2.03-.88-4.39-1.38-7.07-1.38-11.46,0-17.05,9.1-16.77,17.99.04,1.42-.59,2.74-1.66,3.68-8.09,7.04-5.22,24.04,8.58,24.04Z"/>
      <path class="cls-1" d="M599.78,91.83c-5.28,0-9.33,1.92-12.16,4.84-1.31-9.05-7.83-17.2-19.65-17.2-13.79,0-20.41,11.12-19.89,21.82-1.79-1-3.91-1.64-6.46-1.64-15.32,0-16.87,21.3-4.69,25.7,1.11.83,2.55,1.34,4.31,1.34h54.02c1.4.33,2.89.53,4.52.53,1.78,0,3.4-.24,4.9-.64,1.56-.15,2.83-.69,3.81-1.53,13.54-7.68,10.67-33.22-8.71-33.22Z"/>
      <path class="cls-1" d="M1032.36,404.2c-5.28,0-9.33,1.92-12.16,4.84-1.31-9.05-7.83-17.2-19.65-17.2-13.79,0-20.41,11.12-19.89,21.82-1.79-1-3.91-1.64-6.46-1.64-15.32,0-16.87,21.3-4.69,25.7,1.11.83,2.55,1.34,4.31,1.34h54.02c1.4.33,2.89.53,4.52.53,1.78,0,3.4-.24,4.9-.64,1.56-.15,2.83-.69,3.81-1.53,13.54-7.68,10.67-33.22-8.71-33.22Z"/>
      <path class="cls-1" d="M242.19,291.94c6.51,0,11.49,2.36,14.98,5.97,1.61-11.15,9.65-21.19,24.21-21.19,16.98,0,25.15,13.7,24.51,26.88,2.2-1.24,4.82-2.02,7.96-2.02,18.87,0,20.79,26.24,5.78,31.66-1.37,1.02-3.14,1.66-5.32,1.66h-66.55c-1.72.41-3.57.66-5.57.66-2.19,0-4.19-.29-6.04-.78-1.92-.18-3.49-.86-4.69-1.89-16.69-9.46-13.15-40.93,10.73-40.93Z"/>
    </g>
  </g>
</svg>