<?xml version="1.0" encoding="UTF-8"?>
<svg id="Layer_2" data-name="Layer 2" xmlns="http://www.w3.org/2000/svg" viewBox="0 0 378.35 362.01">
  <g id="Layer_1-2" data-name="Layer 1">
    <g>
      <path d="M279.57,351.36c13.81,1.71,27.32-2.37,41.11-.3-1.66.98-3.64,2-5.26,3.03,16.72-2.12,34.7,1.1,51.64.14" style="fill: none; stroke: #231f20; stroke-linecap: round; stroke-linejoin: round; stroke-width: 3px;"/>
      <g>
        <polygon points="159.99 321.81 115.79 323.14 116.1 301.93 156.83 301.93 159.99 321.81" style="fill: #42210b; stroke: #231f20; stroke-linecap: round; stroke-linejoin: round; stroke-width: 3px;"/>
        <polygon points="118.26 323.14 69.28 321.81 72.53 301.93 117.87 301.93 118.26 323.14" style="fill: #42210b; stroke: #231f20; stroke-linecap: round; stroke-linejoin: round; stroke-width: 3px;"/>
        <path d="M77.13,317.98c5.52,0,11.17.4,16.67.23" style="fill: none; stroke: #231f20; stroke-linecap: round; stroke-linejoin: round; stroke-width: 3px;"/>
        <polygon points="115.44 343.58 141.11 343.58 142.76 323.14 116.72 323.14 115.44 343.58" style="fill: #f4c39f; stroke: #231f20; stroke-linecap: round; stroke-linejoin: round; stroke-width: 3px;"/>
        <path d="M142.22,317.98h10.81" style="fill: none; stroke: #231f20; stroke-linecap: round; stroke-linejoin: round; stroke-width: 3px;"/>
        <polygon points="117.69 346.27 92.79 346.27 92.89 323.14 116.44 323.14 117.69 346.27" style="fill: #f4c39f; stroke: #231f20; stroke-linecap: round; stroke-linejoin: round; stroke-width: 3px;"/>
        <g>
          <path d="M117.84,343.58c1.34,0,14.91-.22,16.03-.38,4.53-.66,25.86-4.49,32.43-3.45,5.5.87,12.46,6.94,13.21,12.13,1.13,7.86-11.5,6.37-16.89,5.84-6.53-.64-28.77-.8-33.4-1.14-2.94-.21-11.23-.73-11.41-2.56-.27-2.8.03-8.45.03-10.44Z" style="fill: #4c352f; stroke: #231f20; stroke-linecap: round; stroke-linejoin: round; stroke-width: 3px;"/>
          <path d="M162.38,341.07c-2.01,1.43-2.36,4.9-4.05,6.42" style="fill: none; stroke: #231f20; stroke-linecap: round; stroke-linejoin: round; stroke-width: 3px;"/>
          <path d="M155.96,340.73c-1.34,1.99-2.25,4.51-3.04,6.76" style="fill: none; stroke: #231f20; stroke-linecap: round; stroke-linejoin: round; stroke-width: 3px;"/>
        </g>
        <g>
          <path d="M92.3,345.9c1.34,0,14.91-.22,16.03-.38,4.53-.66,25.86-4.49,32.43-3.45,5.5.87,12.46,6.94,13.21,12.13,1.13,7.86-11.5,6.37-16.89,5.84-6.53-.64-28.77-.8-33.4-1.14-2.94-.21-11.23-.73-11.41-2.56-.27-2.8.03-8.45.03-10.44Z" style="fill: #4c352f; stroke: #231f20; stroke-linecap: round; stroke-linejoin: round; stroke-width: 3px;"/>
          <path d="M134.11,342.38c.03,2.48-.42,4.42-1.01,6.76" style="fill: none; stroke: #231f20; stroke-linecap: round; stroke-linejoin: round; stroke-width: 3px;"/>
          <path d="M129.38,342.38c-.56,2.66-1.29,5.15-2.03,7.77" style="fill: none; stroke: #231f20; stroke-linecap: round; stroke-linejoin: round; stroke-width: 3px;"/>
        </g>
      </g>
      <g>
        <polygon points="272.41 352.44 296.46 352.44 298.02 323.14 273.61 323.14 272.41 352.44" style="fill: #f4c39f; stroke: #231f20; stroke-linecap: round; stroke-linejoin: round; stroke-width: 3px;"/>
        <polygon points="274.51 351.2 253.02 351.2 251.63 323.14 273.43 323.14 274.51 351.2" style="fill: #f4c39f; stroke: #231f20; stroke-linecap: round; stroke-linejoin: round; stroke-width: 3px;"/>
        <path d="M275.17,343.58c-1.34,0-15.05,6.55-16.17,6.39s-3.29-7.31-6.13-7.76c-8.23-1.31-21.28-3.23-26.17-2.46-5.5.87-12.46,6.94-13.21,12.13-1.13,7.86,11.5,6.37,16.89,5.84,6.53-.64,28.77-.8,33.4-1.14,2.94-.21,11.23-.73,11.41-2.56.27-2.8-.03-8.45-.03-10.44Z" style="fill: #4c352f; stroke: #231f20; stroke-linecap: round; stroke-linejoin: round; stroke-width: 3px;"/>
        <path d="M298.51,343.58c-1.34,0-15.95,6.21-17.07,6.05s-2.1-6.93-4.69-7.34c-8.19-1.31-21.7-3.33-26.7-2.54-5.5.87-12.46,6.94-13.21,12.13-1.13,7.86,11.5,6.37,16.89,5.84,6.53-.64,28.77-.8,33.4-1.14,2.94-.21,11.23-.73,11.41-2.56.27-2.8-.03-8.45-.03-10.44Z" style="fill: #4c352f; stroke: #231f20; stroke-linecap: round; stroke-linejoin: round; stroke-width: 3px;"/>
      </g>
      <g>
        <path d="M213.04,237.45c-.82-5.92-7.65-9.72-7.44-16.67.24-7.65,2.57-15.14,5.41-22.19,3.65-9.05,3.44-18.39,2.56-28.24-.94-10.54-4.71-21.3-7.33-31.42-5.38-20.82-4.04-43.46,3.64-63.59,6.11-16.01,15.07-31.02,26.68-43.66,11.04-12.02,28.29-23.98,45.17-25.37,8.42-.69,14.65,4.92,15.12,5.22.41-.54,8.22-7.49,17.51-4.75,15.51,4.56,28.27,16.53,39.34,31.38,5.33,7.15,14.18,21.77,19.75,43.42,4.21,16.36,7.53,34.06,1.92,50.33-1.54,4.47-2.76,8.22-3.43,12.84-1.36,9.43-3.84,18.6-6.51,27.74-2.56,8.77-.06,17.86,2.67,26.31,2.47,7.65,7.94,16.3,8.37,24.48.33,6.1-3.45,10.49-7.41,14.62-3.27,3.4-7.79,12.27-11.77,13.9-4.69,1.91-8.44-3.86-13.17-2.94-4.11.8-6.64,5.25-9.29,8.07-6.08,6.47-22.94,6.16-31.57,3.97-8.95-2.27-16.12-5.55-22.1-4.38-5.36,1.05-19.59,6.17-25.04,4.03-10.34-4.05-16.91-11.02-28.04-6.73-12.45,4.81-13.93-8.39-15.05-16.39Z" style="fill: #231f20; stroke-width: 0px;"/>
        <polygon points="294.89 178.86 264.3 176.35 264.24 215.85 288.5 217.84 294.89 178.86" style="fill: #f4c39f; stroke: #231f20; stroke-linecap: round; stroke-linejoin: round; stroke-width: 3px;"/>
        <path d="M354.68,104.77c-2.92.23-5.25,1.39-7.05,3.14-1.72-24.07,1.73-33.83-11.54-57.18-10.43-18.34-29.78-27.44-50.81-25.77-18.69,1.48-43.16,10.15-52.31,27.6-10.97,20.91-14.75,31.23-20.46,53.95-3.73,14.85-8.55,30.08-1.89,44.89,20.84,46.31,83.53,43.5,120.7,22.38,13.8-7.84,20.34-22.12,20.26-36.96,1.66.76,3.56,1.13,5.68.96,17.1-1.34,14.55-34.35-2.58-33.01Z" style="fill: #f4c39f; stroke: #231f20; stroke-linecap: round; stroke-linejoin: round; stroke-width: 3px;"/>
        <g>
          <path d="M239.55,94.97c6.17-3.81,12.75-4.75,18.35-1.21" style="fill: none; stroke: #231f20; stroke-linecap: round; stroke-linejoin: round; stroke-width: 3px;"/>
          <path d="M285.63,96.44c6.3-1.7,18.91.31,19.98,8.49" style="fill: none; stroke: #231f20; stroke-linecap: round; stroke-linejoin: round; stroke-width: 3px;"/>
          <path d="M270.13,97.86c-.7-.05-1.41-.08-2.13-.11-6.02-.2-11.57,3.82-12.83,9.71-.12.58-.21,1.18-.24,1.83-.45,9.65,10.42,10.45,16.5,6.85" style="fill: #f4c39f; stroke: #231f20; stroke-linecap: round; stroke-linejoin: round; stroke-width: 3px;"/>
          <path d="M292.54,147.63c-8.56,6.1-17.81,9.48-26.8,8.44-9.38-1.09-18.49-6.89-27.07-13.72" style="fill: none; stroke: #231f20; stroke-linecap: round; stroke-linejoin: round; stroke-width: 3px;"/>
        </g>
        <path d="M357.69,80.13c-.24-2.54-.58-4.97-.96-7.15-5.79-33.21-41.11-69.98-75.98-65.59-16.52,2.08-28.82,8.19-42.55,17.29-12.6,8.36-32.54,24.62-35.01,40.51-.96,6.17.51,24.86,10.85,19.91,7.53-3.61,16.53-9.96,21.31-16.37,6.79-9.1,14.98-18.1,24.78-24.43,9.55-6.16,22.46-7.13,30.95-14.67,2.84,10.45,6.33,20.74,10.48,30.74,4.58,11.05,9.66,22.39,16.7,32.12,5.89,8.14,27.63,27.29,36.03,12.74,3.86-6.68,4.21-16.56,3.41-25.1Z" style="fill: #231f20; stroke-width: 0px;"/>
        <circle cx="358.99" cy="136.63" r="4.78" style="fill: #fff; stroke: #231f20; stroke-linecap: round; stroke-linejoin: round; stroke-width: 3px;"/>
      </g>
      <g>
        <path d="M248.73,242.37c-5.23,6.55-30.16,19.31-35.29,21.41-2.26.92-12.06,12.03-13.84,13.56-1.12.96-3.14,2.27-4.75,1.96-2.39-.47-2.57-3.73-.81-6.15-.58.78-4.26,3.13-6.19,1.17-2.78-2.82,1.23-5.88,2.26-7.55-1.37-.16-5.55,3.06-6.5,1.24-1.73-3.32,1.73-6.22,4.24-7.78,1.55-.97,3.23-1.75,4.95-2.36,1.62-.57,3.52-.67,5.03-1.5,2.82-1.55,17.32-16.08,19.75-18.13,2.42-2.04,29.43-25.91,36.65-29.62,2.26-.25-2.08,29.47-5.49,33.75Z" style="fill: #f4c39f; stroke: #231f20; stroke-linecap: round; stroke-linejoin: round; stroke-width: 3px;"/>
        <path d="M297.65,208l-7.39-.38c.83,3.83-9.66,8.14-14.77,7.87s-12.72-5.51-11.49-9.24l-5.77-.3s-13.11,24.27-15.89,46.94c-8.27,9.97-9.43,19.55-6.25,34.36l-1.63,25.56h78.76l-.18-21.55c2.14-41.12-15.39-83.25-15.39-83.25Z" style="fill: #fff; stroke: #231f20; stroke-linecap: round; stroke-linejoin: round; stroke-width: 3px;"/>
        <path d="M259.01,245.75c-7.92-.35-17.01,5.11-21.15,13.26-3.5,6.89-5.85,21.62-1.04,28.28" style="fill: none; stroke: #231f20; stroke-linecap: round; stroke-linejoin: round; stroke-width: 3px;"/>
        <path d="M282.13,251.35c-3.38.14-5.61-2.68-8.84-2.82-2.18-.09-4.12,2.33-2.42,4.31-1.92.03-5.12-.86-6.03,1.57-.93,2.5.83,3.19,2.6,4.18-.45.79-1.78,1.11-2.54,1.59-1.65,1.06-2.09,4.38.38,4.86.86.17,1.67.41,2.46.68-.82.31-1.63.64-2.43.99-1.77.78-1.92,3.61-.24,4.56,1.9,1.08,3.87,1.56,6.04,1.76,9.08.84,27.61-3.2,34.89-6.58,6.89-3.2,12.04-10.03,13.2-15.64.84-4.08-.5-18.2-2.18-22.13-3.52-8.21-8.74-15.87-16.26-20.89-1.01-.68-2.03-.54-2.8,0-.64.45.82,7.91.91,8.78.44,3.92.9,7.84,1.4,11.75.22,1.7,1.48,12.27.88,13.87-1.16,3.13-16.62,9.05-19.03,9.15Z" style="fill: #f4c39f; stroke: #231f20; stroke-linecap: round; stroke-linejoin: round; stroke-width: 3px;"/>
        <path d="M229.98,313.06c-.96.39-1.92.87-2.88,1.46-3.22,1.99-15.59,9.07-7.07,12.04,4.33,1.51,8.99.31,13.38-.26,5.28-.68,10.59-.94,15.91-.99,11-.09,21.99.75,32.98.38,8.39-.28,16.45-.99,24.85-.53,4.07.23,24.81,2.08,18.84-6.43-1.71-2.44-5.08-6.76-8.19-7.21-22.65-3.28-45.13,2.42-67.79.92-7.11-.47-13.67-1.95-20.03.61Z" style="fill: #fff; stroke: #231f20; stroke-linecap: round; stroke-linejoin: round; stroke-width: 3px;"/>
      </g>
      <g>
        <path d="M140.25,201.04c6.99.18,19.23,12.21,25.11,17.66,11.17,10.35,18.83,14.27,31.28,24.37,3.73,3.03,14.08-1.53,15.52,5.28.33,1.56-.52,5.13-1.9,6.06-1.7,1.15-5.49-.4-5.98-2.05-3.67,3.72-8.79,6.6-13.75,8.19-3.72,1.19-6.99-4.7-9.25-6.73-3.32-2.97-25.14-5.83-29.56-10.72-1.82-6.38-12.75-42.1-11.48-42.06Z" style="fill: #f4c39f; stroke: #231f20; stroke-linecap: round; stroke-linejoin: round; stroke-width: 3px;"/>
        <path d="M210.72,266.57c-.15-1.49-.12-3.5.74-4.79.77-1.15,2.4-1.09,3.5-.51,2.45,1.3,3.33,6.55,1.97,8.79-.78,1.28-2.45,1.82-3.84,1.24-1.84-.77-2.2-2.98-2.37-4.73Z" style="fill: #f4c39f; stroke: #231f20; stroke-linecap: round; stroke-linejoin: round; stroke-width: 3px;"/>
        <path d="M203.45,270.38c-.25-1.61-.33-3.69.6-5.16,1.65-2.6,4.69-1.32,5.87.99.94,1.84,1.6,5.35.37,7.21-2.06,3.13-5.4,1.37-6.44-1.45-.19-.52-.33-1.05-.41-1.59Z" style="fill: #f4c39f; stroke: #231f20; stroke-linecap: round; stroke-linejoin: round; stroke-width: 3px;"/>
        <path d="M197,269.7c-.06-.68.23-1.47.58-1.9,2.24-2.76,5.84,1.77,5.96,4.92.07,1.84-.62,3.92-2.17,4.22-1.91.37-3.06-2.09-3.73-4.02-.36-1.04-.54-2.14-.64-3.22Z" style="fill: #f4c39f; stroke: #231f20; stroke-linecap: round; stroke-linejoin: round; stroke-width: 3px;"/>
        <polygon points="121.48 163.24 90.81 169.24 103.57 211.59 127.04 207 121.48 163.24" style="fill: #f4c39f; stroke: #231f20; stroke-linecap: round; stroke-linejoin: round; stroke-width: 3px;"/>
        <g>
        <path id="arm" d="M76.19,234.15c-5.37-2.11-16.27-9.79-21.22-13.16-7.57-5.15-14.01-13.08-20.43-19.63-3.2-3.27-13.47-13.5-16.52-16.14-2.81-2.43-4.92.6-8.6.43-6.93-.32-6.89-7.55-.54-9.97-3.46,1.13-6.68.9-7.25-2.98-.61-4.09,3.77-7.24,7.33-8.01-2.26-2.06-4.11-7.4-.98-9.16,4.05-2.27,8.01,4.8,10.82,3.76,1.19-.44,1.25-4.16,2.96-4.93,1.96-.89,3.66-.29,5.26.82,2.64,1.85,3.81,8.42,4.03,11.6.09,1.24,6.84,6.36,7.99,7.54,2.43,2.47,8.37,6.38,13.01,9.75,5,3.63,19.71,11.8,24.18,13.33.46,2.44-.12,32.87-.03,36.75Z" style="fill: #f4c39f; stroke: #231f20; stroke-linecap: round; stroke-linejoin: round; 
        stroke-width: 3px;">
        </path>
        <path d="M85.97,197.37s-9.72-3.34-18.78-5.03c.21,9.75-3.84,39.63-4.55,53.16,1.62-1.43,13.58,4.01,15.44-.67,4.5-11.38,7.9-47.46,7.9-47.46Z" style="fill: #fff; stroke: #231f20; stroke-linecap: round; stroke-linejoin: round; stroke-width: 3px;"/>
          <animateTransform
            attributeName="transform"
            type="rotate"
            values="0 75 235; 8 75 235; 0 75 235"
            dur="2s"
            repeatCount="indefinite"
          />
        </g>
        <path d="M139.54,196.89s13.93,5.01,21.97,14.7c-.32,8.03-2.58,32.47-8.6,37.41-5.5-3.98-13.37-52.11-13.37-52.11Z" style="fill: #fff; stroke: #231f20; stroke-linecap: round; stroke-linejoin: round; stroke-width: 3px;"/>
        <path d="M139.54,196.89l-8.57-5.93c-4.02.26-7.74,2.36-9.85,5.79-2.98,4.84-8.46,8.71-8.46,8.71,0,0-4.45-2.84-7.55-6.91-2.64-3.47-6.74-5.52-11.09-5.24l-8.05,4.05s-17.04,60.53-15.61,103.71l89.01.84c-2.08-53.15-19.83-105.04-19.83-105.04Z" style="fill: #fff; stroke: #231f20; stroke-linecap: round; stroke-linejoin: round; stroke-width: 3px;"/>
        <polygon points="149.69 234.5 77.29 234.5 80.32 220.94 146.35 219.56 149.69 234.5" style="fill: #c83002; stroke: #231f20; stroke-linecap: round; stroke-linejoin: round; stroke-width: 3px;"/>
        <path d="M128.89,192.03c.29.03.38-.07.64.08.31,2.54,1.72,4.81.37,7.24-1.09,1.97-3.38,2.59-5.52,2.37" style="fill: none; stroke: #231f20; stroke-linecap: round; stroke-linejoin: round; stroke-width: 3px;"/>
        <path d="M94.66,194.06c0,5.49,1.5,6.98,6.98,6.98" style="fill: none; stroke: #231f20; stroke-linecap: round; stroke-linejoin: round; stroke-width: 3px;"/>
      </g>
      <g>
        <path d="M174.17,76.53c-17.67,2.32-12.83,39.41,4.87,37.08,17.67-2.32,12.83-39.41-4.87-37.08Z" style="fill: #f4c39f; stroke: #231f20; stroke-linecap: round; stroke-linejoin: round; stroke-width: 3px;"/>
        <path d="M28.48,103.67c3.04-.1,5.58.83,7.64,2.42-1.02-25.04-5.72-34.72,5.27-60.37,8.63-20.15,27.55-31.78,49.46-32.51,19.47-.64,45.73,5.46,57.21,22.42,13.75,20.31,18.85,30.53,27.39,53.32,5.58,14.89,12.32,30.06,7.16,46.13-16.13,50.23-81.18,54.61-122.01,37.12-15.16-6.49-23.56-20.47-25.21-35.8-1.63.98-3.54,1.58-5.75,1.65-17.81.61-19.01-33.77-1.17-34.38Z" style="fill: #f4c39f; stroke: #231f20; stroke-linecap: round; stroke-linejoin: round; stroke-width: 3px;"/>
        <g>
          <path d="M84.43,104.04c1.96,0,3.84-1.72,3.75-3.75s-1.65-3.75-3.75-3.75c-1.96,0-3.84,1.72-3.75,3.75s1.65,3.75,3.75,3.75h0Z" style="fill: #231f20; stroke-width: 0px;"/>
          <path d="M126.79,98.24c1.96,0,3.84-1.72,3.75-3.75s-1.65-3.75-3.75-3.75c-1.96,0-3.84,1.72-3.75,3.75s1.65,3.75,3.75,3.75h0Z" style="fill: #231f20; stroke-width: 0px;"/>
          <path d="M104.77,93.57c5.48.24,11.37,3.08,13.5,6.72.86,1.47,1.12,2.99,1.1,4.45-.03,2.8-1.19,5.57-4.2,7.16s-8.15,1.62-11.65-.44" style="fill: none; stroke: #231f20; stroke-linecap: round; stroke-linejoin: round; stroke-width: 3px;"/>
          <path d="M70.88,85.57c1.42-5.14,7.16-4.98,10.36-6.67" style="fill: none; stroke: #231f20; stroke-linecap: round; stroke-linejoin: round; stroke-width: 3px;"/>
          <path d="M121.3,74.89c5.09-.8,10.78-2.09,11.73,2.21" style="fill: none; stroke: #231f20; stroke-linecap: round; stroke-linejoin: round; stroke-width: 3px;"/>
          <path d="M73.59,143.32c4.6,4.95,11.35,7.46,18.07,8.14,6.72.68,13.48-.3,20.14-1.41,7.77-1.3,15.6-2.8,22.76-6.06,7.17-3.26,13.71-8.47,17.16-15.55" style="fill: none; stroke: #231f20; stroke-linecap: round; stroke-linejoin: round; stroke-width: 3px;"/>
        </g>
        <path d="M184.28,69.21c-.22-4.61-.89-9.27-1.48-13.4-1.53-10.63-3.83-24.37-14.16-30.15-4.5-2.52-10.13-3.42-14.92-1.15-2.35,1.11-4.11,2.96-5.71,4.95-.04.05-.08.11-.13.16-3.97-9.72-11.54-17.97-20.77-22.95C108.58-3.29,83.92.17,63.98,2.69c-8.34,1.05-52.44,14.51-50.62,44.71,3.59-4.44,12.44-12.81,14.38-12.9-1.44,1.69-2.77,3.46-3.97,5.33-3.99,6.21-7.08,13.43-8.91,20.58-4.21,16.41,3.17,44.31,22.95,47.13.85-2.54.69-5.09.58-7.73.08,2.06,7.88,2.38,9.12,2.1-.05.01-2.76-7.63-2.99-8.51-1.18-4.52-1.8-9.08-1.56-13.76.54,1.4,1.16,2.77,1.85,4.08,2.23,4.25,5.03,10.81,9.54,13.13,3.82,1.97,10,2.86,13.49-.02-.66.54-4.31-10.52-4.58-11.45-1.33-4.52-4.74-13.52.02-16.88,6.79,9.48,12.38,12.79,14.82,13.57,3.53,1.13,10.35,1.28,14-.26-.6.06-2.74-8.33-2.92-9.08-3.45-14.69.61-24.85,15.69-27.79,5.58-1.09,16.64-3.3,22.33-3.6,12.18-.63,23.23.25,27.46,12.42,2.26,6.49,12.49,28.48,18.24,32.63,6.47,4.67,8.9,1.56,10.6-5.67.84-3.57.99-7.53.81-11.52Z" style="fill: #231f20; stroke-width: 0px;"/>
      </g>
      <path d="M103.46,278.12c4.05-.62,10.45,1.95,14.55,2.78,3.37.68,6.67,1.82,10.11,1.95" style="fill: none; stroke: #231f20; stroke-linecap: round; stroke-linejoin: round; stroke-width: 3px;"/>
      <path d="M88.31,352.9c-4.94,1.12-12.83,3.55-19.4,4.09" style="fill: none; stroke: #231f20; stroke-linecap: round; stroke-linejoin: round; stroke-width: 3px;"/>
      <path d="M77.59,351.88c-13.62.03-27.8,7.67-41.2,6.05-.22-1.52-.76-2.79-.75-4.44-11.21-.75-22.8,2.89-34.14,2.48" style="fill: none; stroke: #231f20; stroke-linecap: round; stroke-linejoin: round; stroke-width: 3px;"/>
    </g>
  </g>
</svg>