<?xml version="1.0" encoding="UTF-8"?>
<svg id="Layer_2" data-name="Layer 2" xmlns="http://www.w3.org/2000/svg" viewBox="0 0 191.92 77.16">
  <defs>
    <style>
      .cls-1 {
        fill: none;
      }

      .cls-1, .cls-2 {
        stroke: #231f20;
        stroke-linecap: round;
        stroke-linejoin: round;
        stroke-width: 3px;
      }

      .cls-3 {
        fill: #fff;
        font-family: GeniceWriting-Regular, 'Genice Writing';
        font-size: 55px;
        letter-spacing: 0em;
      }

      .cls-2 {
        fill: #c83002;
      }
    </style>
  </defs>
  <g id="Layer_1-2" data-name="Layer 1">
    <path class="cls-2" d="M190.42,65.88c-11.33.48-22.65,1.6-34,2.02-16.31.59-33.21-1.6-49.38.98-5.07.81-9.6,3.31-14.8,3.4-8.68.16-17.3-.52-25.99-.18-9.71.38-19.42.76-29.13,1.14-6.04.24-12.09.37-18.13.51-3.32.08-12.71,2.33-14.74-1.19s-.83-14.25-.99-18.46c-.59-14.96-1.16-29.92-1.76-44.88,4.76-.19,9.68-1.97,14.36-1.76,4.8.22,9.38,2.09,14.1,2.98s9.88.98,14.79.93c14.97-.16,29.8-2.71,44.65-4.41,15.32-1.75,30.93-2.44,46.33-2.78,12.77-.28,25.39-2.1,38.12-2.66,4.68-.21,9.28.87,14.06.4-.59.06,3.04,56.04,2.41,61.43-.09.79.07,1.72.1,2.52Z"/>
    <text class="cls-3" transform="translate(31.78 61.78) rotate(-3.24)"><tspan x="0" y="0">RSVP</tspan></text>
    <path class="cls-1" d="M2.47,60.2c3.46.28,6.53.22,9.87-.34"/>
    <path class="cls-1" d="M188.69,10.15h-6.81c-1.97,0-4.19.24-6.13.34"/>
  </g>
</svg>