<?xml version="1.0" encoding="UTF-8"?>
<svg id="Layer_2" data-name="Layer 2" xmlns="http://www.w3.org/2000/svg" viewBox="0 0 191.92 76.03">
  <defs>
    <style>
      .cls-1 {
        fill: none;
      }

      .cls-1, .cls-2 {
        stroke: #231f20;
        stroke-linecap: round;
        stroke-linejoin: round;
        stroke-width: 3px;
      }

      .cls-2 {
        fill: #c83002;
      }

      .cls-3 {
        fill: #fff;
        stroke-width: 0px;
      }
    </style>
  </defs>
  <g id="Layer_1-2" data-name="Layer 1">
    <g>
      <path class="cls-2" d="M190.42,65.88c-11.33.48-22.65,1.6-34,2.02-16.31.59-33.21-1.6-49.38.98-5.07.81-9.6,3.31-14.8,3.4-8.68.16-17.3-.52-25.99-.18-9.71.38-19.42.76-29.13,1.14-6.04.24-12.09.37-18.13.51-3.32.08-12.71,2.33-14.74-1.19s-.83-14.25-.99-18.46c-.59-14.96-1.16-29.92-1.76-44.88,4.76-.19,9.68-1.97,14.36-1.76,4.8.22,9.38,2.09,14.1,2.98s9.88.98,14.79.93c14.97-.16,29.8-2.71,44.65-4.41,15.32-1.75,30.93-2.44,46.33-2.78,12.77-.28,25.39-2.1,38.12-2.66,4.68-.21,9.28.87,14.06.4-.59.06,3.04,56.04,2.41,61.43-.09.79.07,1.72.1,2.52Z"/>
      <g>
        <path class="cls-3" d="M39.86,24.42c1.01-.28,2.51-.47,4.48-.58,2.31-.13,4.11-.09,5.41.13,1.85.26,3.67,1.52,5.45,3.77.59.74.92,1.6.97,2.59l.03.49c.04,1.36-.21,2.46-.75,3.29-.6.99-1.43,2.04-2.47,3.14-1.04,1.11-1.98,1.96-2.83,2.56-.42.32-.62.64-.61.97.03.51.69,1.25,2,2.2.69.55,1.49,1.19,2.4,1.93.9.74,1.8,1.43,2.68,2.08,4.33,3.13,6.87,5.16,7.62,6.07.47.6.77,1.37.9,2.32l.02.44c.04.66-.21,1.24-.73,1.75-.46.39-.87.6-1.23.62-.07,0-.7-.07-1.89-.22-.81-.1-2.07-.91-3.77-2.43-2.44-2.25-5.46-4.57-9.04-6.98-1.34-.92-2.72-1.98-4.15-3.18-1.12-1-1.79-1.5-2.01-1.48-.04,0-.05.15-.03.44.02.33.16,1.48.42,3.45.18,1.28.31,2.5.37,3.67.2,3.51,0,5.75-.61,6.7-.27.49-.6.75-1,.77-.04,0-.35-.02-.94-.06-.81-.06-1.38-.2-1.7-.4-.32-.2-.65-.6-.98-1.21-.17-.43-.27-.81-.29-1.14,0-.11.04-.68.12-1.71.07-.67.08-1.44.03-2.32-.1-1.68-.52-4.39-1.29-8.11-.76-3.72-1.2-5.93-1.31-6.62-.24-1.67-.45-2.77-.63-3.3-.18-.52-.48-1.03-.91-1.52-.63-.7-.96-1.4-1-2.09-.04-.69.25-1.45.86-2.25.55-.73,1.44-1.46,2.68-2.19,1.24-.73,2.48-1.26,3.71-1.59ZM49.09,29.84c-.53-.3-1.29-.42-2.28-.37-1.87.11-3.69.61-5.48,1.52l-1.45.74.09,1.65c.06.99.18,1.96.38,2.9.1.51.2.83.3.97.1.14.28.21.53.19.04,0,.12-.02.25-.04.13-.03.23-.04.3-.04,1.82-.25,3.33-.92,4.51-2.02.67-.55,1.44-1.4,2.31-2.56.87-1.15,1.3-1.87,1.28-2.17-.01-.22-.27-.48-.76-.78Z"/>
        <path class="cls-3" d="M76.55,21.57c1.21-.58,2.46-.91,3.75-.98.11,0,.32,0,.63,0,.31,0,.56,0,.74-.01,2.12-.08,3.66.12,4.61.62.83.47,1.55,1.2,2.14,2.19.59,1,.91,1.99.97,2.97.02.33.01.57-.01.72-.04.63-.12,1.05-.26,1.28s-.38.41-.74.54c-.04,0-.1.02-.19.04-.09.02-.17.04-.25.04-.48.03-.98-.09-1.51-.36-1.17-.59-2.05-.98-2.63-1.15-.58-.17-1.27-.23-2.08-.19l-.49.03c-1.39.15-2.44.45-3.14.89-.78.52-1.33.79-1.66.81-.33.02-.48.21-.46.58.03.59.4,1.15,1.09,1.7.43.38,1.82,1.27,4.17,2.68,1.41.84,2.62,1.58,3.65,2.22,1.03.64,2.47,1.51,4.34,2.62,2.35,1.37,4.1,2.55,5.24,3.53,1.14.98,1.96,2.05,2.47,3.19.39.97.59,1.75.63,2.33.04.73-.21,1.72-.77,2.96-.52,1.13-1.15,2-1.86,2.61-.72.61-1.99,1.33-3.82,2.17-1.86.88-4.12,1.45-6.79,1.71l-4.16.4-4.97-2.14c-2.6-1.1-4.21-1.93-4.85-2.48-.64-.55-.99-1.36-1.05-2.42-.08-1.35.6-2.07,2.03-2.15,1.06-.06,2.38.25,3.96.93,3.05,1.26,5.61,1.83,7.7,1.71.73-.04,1.28-.11,1.64-.2,1.23-.29,2.51-.78,3.83-1.48,1.32-.7,1.97-1.21,1.95-1.54-.05-.95-1.52-2.19-4.4-3.72-6.7-3.48-11.5-6.51-14.4-9.1-.85-.76-1.58-1.72-2.17-2.88-.6-1.16-.93-2.25-.98-3.28-.04-.69.04-1.22.24-1.58.2-.36.68-.91,1.45-1.65,1.47-1.37,3.61-2.76,6.43-4.17Z"/>
        <path class="cls-3" d="M127.21,18.26c.25-.12.58-.2.98-.22.66-.04,1.36.05,2.11.27.75.21,1.26.5,1.54.85.36.53.56,1.2.61,2,.03.51-.02.9-.15,1.17-1,1.86-2.02,4.3-3.06,7.33-.72,2.24-1.72,5.8-3,10.66-1.29,4.87-2.11,8.32-2.47,10.36-.31,1.67-.94,2.88-1.89,3.63-.14.08-.49.14-1.04.17-.44.02-.79.03-1.05,0-1.03-.01-1.8-.23-2.32-.64-.52-.41-.9-1.09-1.13-2.03-.19-.69-.83-2.03-1.94-4.02-1.1-1.99-2.11-3.63-3.03-4.9-.95-1.27-1.44-2.03-1.45-2.29-.03-.51-1.7-3.17-5.02-7.98-1.8-2.58-2.91-4.21-3.34-4.91-.42-.69-.67-1.29-.74-1.8-.05-.18-.08-.45-.1-.82-.06-1.06.32-1.87,1.13-2.43.56-.4,1.1-.61,1.62-.64.62-.04,1.35.18,2.19.65.87.47,1.93,1.73,3.19,3.79,1.41,2.27,2.73,4.51,3.96,6.72.94,1.64,2.12,3.44,3.56,5.42,1.43,1.98,2.28,2.96,2.53,2.94.29-.02.87-1.55,1.72-4.61,2.28-8.39,3.66-13.13,4.15-14.23.25-.68.43-1.24.51-1.68.08-.48.33-1.02.73-1.61.41-.59.81-.97,1.2-1.14Z"/>
        <path class="cls-3" d="M145.47,18.77c2.1-.49,4.03-.78,5.79-.88l.88-.05c1.91-.07,3.29.11,4.16.54,1.81.82,3.17,1.72,4.09,2.71.92,1,1.63,2.36,2.13,4.09.23.79.35,1.39.38,1.8.04.73-.15,1.5-.59,2.29-.43.8-1.3,2.02-2.6,3.67-1.27,1.65-2.36,2.95-3.28,3.9-.92.95-2.05,1.93-3.39,2.92-1.9,1.43-3.31,2.17-4.23,2.22-.81.05-1.6-.33-2.38-1.13l-.76-.78v.99c.04.66.26,1.73.68,3.21.46,1.66.74,3.39.84,5.19l.17,2.96-.94.88c-.66.62-1.29.95-1.87.99-.33.02-.74-.05-1.22-.21-.9-.28-1.62-1.69-2.17-4.23-.15-.65-.51-2.17-1.08-4.57-.25-1.09-.84-4.75-1.78-10.97-.64-4.22-1-6.96-1.07-8.2-.07-1.21.01-2.06.24-2.55.23-.49.71-1.07,1.44-1.73.66-.59,1.72-1.23,3.17-1.92,1.45-.69,2.57-1.07,3.38-1.16ZM154.21,24.22c-.56-.15-1.17-.21-1.83-.17-.62.04-1.57.14-2.85.33-.77.08-1.93.42-3.5,1.02-1.56.6-2.41,1.02-2.55,1.25l-.05.17c0,.07,0,.15.01.22.13,2.38.54,5.06,1.23,8.03l.28,1.14,1.64-.2c1.06-.13,1.87-.34,2.44-.63.5-.28,1.73-1.49,3.71-3.62,2.32-2.48,3.45-4.18,3.4-5.1-.02-.29-.17-.69-.45-1.19-.41-.67-.91-1.09-1.5-1.24Z"/>
      </g>
      <path class="cls-1" d="M2.47,60.2c3.46.28,6.53.22,9.87-.34"/>
      <path class="cls-1" d="M188.69,10.15h-6.81c-1.97,0-4.19.24-6.13.34"/>
    </g>
  </g>
</svg>