<?xml version="1.0" encoding="UTF-8"?>
<svg id="Layer_2" data-name="Layer 2" xmlns="http://www.w3.org/2000/svg" viewBox="0 0 332.36 268.98">
  <defs>
    <style>
      .cls-1, .cls-2, .cls-3 {
        stroke-width: 0px;
      }

      .cls-2 {
        fill: #fff;
      }

      .cls-4 {
        fill: #fff3b5;
        stroke: #000;
        stroke-miterlimit: 10;
        stroke-width: 5px;
      }

      .cls-3 {
        fill: #c83002;
      }
    </style>
  </defs>
  <g id="Layer_1-2" data-name="Layer 1">
    <g>
      <path class="cls-2" d="M210.48,262.16c0-1.19,1.11-2.54,2.39-2.39,5.29.61,10.62,1.35,15.96,1.2,4.22-.12,8.42-.93,12.24-2.77,2.23-1.08,4.23-2.47,6.26-3.88,1.75-1.22,3.58-2.32,5.32-3.55.36-.26.7-.53,1.03-.8.68-1.05,1.5-2.06,2.48-2.6.91-1.22,1.62-2.58,2.14-4.08-5.39-19.37-11.53-25.57-25.89-27.22-12.6-1.45-13.19-1.5-12.23-14.38,1.5-20.33-4.14-38.41-13.23-55.54-.36-1.48.64-3.94-1.24-6.76-1.91-2.86-2.87-2.13-4.49-3.24-1.02-.7-1.18-2.61-.9-3.71,2.01-7.77,3.24-15.98,6.68-23.09,3.38-6.97,9.46-12.58,13.68-19.21,7.02-11.03,14.53-21.94,19.79-33.81,2.85-6.44,2.78-14.89,1.7-22.2-.86-5.84-2.45-10.63,1.97-14.71,4.39-4.05,1.71-11.56-2.97-15.54-5.14-4.36-11.48-5.4-15.79-1.25-4.19,4.03-3.61,6.19-13.65,3.75-15.25-3.71-28.86,1.12-41.47,10.27-6.72,4.88-14.34,8.77-22.04,11.96-3.83,1.58-8.87,1.16-13.06.38-6.97-1.3-14.81-.22-20.54,2.06-19.96,7.91-27.34,20.16-25.7,41.62.95,12.49.94,25.11.42,37.64-.65,15.65,8.64,30.4,23.92,36.16,14.33,5.4,26.6,1.35,37.25-12.31.81-1.04,1.34-2.45,2.37-3.1,2.37-1.5,4.15-1.38,6.08.64,1.83,1.91,3.85,3.66,5.73,5.52,1.3,1.29,2.82,2.66,3.22,4.53.47,2.24-1.23,4.56-1.7,6.7-.22.98-.52,2.26-.09,3,3.71,6.41-.73,10.04-4.29,14.4-9.78,11.98-19.78,23.85-28.49,36.59-3.25,4.75-4.39,11.79-4.29,17.76.15,8.82.14,10.19-8.46,8.9-9.63-1.44-17.78.72-25.24,6.32-.1,2.41-.45,4.82-.89,7.15-.15.79-.32,1.6-.52,2.4,1.09.81,1.85,2.31,2.55,4.72,1.09,3.73,4.56,8.99,7.66,9.52,10.48,1.77,21.25,1.97,31.92,2.18,2.11.04,6.06-2.48,6.12-3.95.41-9.32,7.02-7.78,12.38-7.26,19.57,1.9,39.1,4.21,58.63,6.44.52.06.94.93,2.75,2.85-11.39.35-21.55-2.56-31.32.8,1.35,1.44,2.72,2.23,4.1,2.25,7.23.13,14.5-.4,21.74-.31,0-.01,0-.02,0-.04Z"/>
      <path class="cls-1" d="M327.8,254.68c-4.56,1.12-8.89,3.2-13.46,4.31-4.2,1.02-8.59,1.79-12.89,1.76-11.51-.08-22.97-1.34-34.48-1.02-4.29.12-9.51.95-13.59-.87-3.05-1.36-2.59-4.14-1.23-6.63,1.21-2.22,3.3-6.15,6.4-4.9,1.59.64,2.55,1.34,3.71-.38.94-1.4,1.74-2.93,2.46-4.45.65-1.38,1.12-4.15,2.95-2.02.97,1.13.99,3.04,1.09,4.44.13,1.84-.35,10.58,3.05,5.68.99-1.43,1.33-3.21,2.22-4.69,2.83-4.74,5.62-9.48,8.82-13.99.92-1.3,2.61-2.67,2.81-4.35.3-2.58-1.83-1.45-3.01-.53-1.14.88-2.27,1.77-3.45,2.6-1.52,1.06-3.82,3.13-5.75,3.26-2.13.14-3.53-1.12-5.7.05-3.95,2.13-6.89,7.35-9.65,10.77-5.41-19.59-11.54-25.83-25.96-27.49-12.6-1.45-13.19-1.5-12.23-14.38,1.5-20.33-4.14-38.41-13.23-55.54-.36-1.48.64-3.94-1.24-6.76-1.91-2.86-2.87-2.13-4.49-3.24-1.02-.7-1.18-2.61-.9-3.71,2.01-7.77,3.24-15.98,6.68-23.09,3.38-6.97,9.46-12.58,13.68-19.21,7.02-11.03,14.53-21.94,19.79-33.81,2.85-6.44,2.78-14.89,1.7-22.2-.86-5.84-2.45-10.63,1.97-14.71,4.39-4.05,1.71-11.56-2.97-15.54-5.14-4.36-11.48-5.4-15.79-1.25-4.19,4.03-3.61,6.19-13.65,3.75-15.25-3.71-28.86,1.12-41.47,10.27-6.72,4.88-14.34,8.77-22.04,11.96-3.83,1.58-8.87,1.16-13.06.38-6.97-1.3-14.81-.22-20.54,2.06-19.96,7.91-27.34,20.16-25.7,41.62.95,12.49.94,25.11.42,37.64-.65,15.65,8.64,30.4,23.92,36.16,14.33,5.4,26.61,1.35,37.25-12.31.81-1.04,1.34-2.45,2.37-3.1,2.37-1.5,4.15-1.38,6.08.64,1.83,1.91,3.85,3.66,5.73,5.52,1.3,1.29,2.82,2.66,3.22,4.53.47,2.24-1.23,4.56-1.7,6.7-.22.98-.52,2.26-.09,3,3.71,6.41-.73,10.04-4.29,14.4-9.78,11.98-19.78,23.85-28.49,36.59-3.25,4.75-4.39,11.79-4.29,17.76.15,8.82.14,10.19-8.46,8.9-10.41-1.56-19.09,1.09-27.03,7.74-7.24,6.07-16.04,7.61-25.18,7.08-3.54-.2-8.16-4.32-3.71-7.19,1.62-1.04,3.83-1.02,5.67-.76,3.26.46,5.2,3.16,8.77,2.1,2.77-.82,5.53-1.74,8.21-2.82,5.09-2.05,9.92-4.76,14.18-8.24,2.13-1.74,4.11-3.67,5.89-5.77,1.67-1.97,4.17-4.64,4.95-7.15.24-.78.31-2.05-.67-2.48-.91-.4-2.63,1.07-3.49,1.63-2.43,1.61-4.69,3.45-6.91,5.33-3.37,2.86-6.47,6.03-9.95,8.75-2.74,2.14-7.74,6.09-11.51,5.05-3-.83-1.47-7.62-.4-9.34,2.31-3.72,5.19-7.03,7.99-10.37,1.63-1.94,3.23-3.98,4.47-6.19.44-.78,1.53-2.43,1.13-3.4-.64-1.56-3.42-.48-4.5.09-1.47.78-2.4,2.28-3.41,3.54-3.61,4.55-7.3,9.2-9.58,14.6-2.39,5.66-5.47,9.36-10.98,11.3-1.86.65-4.4,1.51-6.38.72-6.02-2.38-1.03-14.55-.75-19.02.09-1.48.52-5.07-1.14-5.9-2.94-1.49-4.13,4.41-4.55,6.05-.9,3.52-1.27,12.65-5.79,13.72-5.27,1.25-10.3-5.02-15.36-3.02-7.93,3.13-15.9,2.26-24.01,2.14-2.18-.03-6.07,3-6.27,4.92-.44,4.35,3.77,4.63,6.83,3.95,5.87-1.3,11.51-3.94,17.41-4.73,3.84-.52,7.73-.4,11.58-.15,3.05.2,6.46-.3,8.24,2.59,1.75,2.84-4.54,3.19-5.96,3.17-2.59-.04-5.19-.58-7.79-.28-2.77.31-9.12,3.78-3.79,5.84,4.5,1.73,9.48-.1,13.93-1.11,2.66-.6,10.32-2.28,12.13.69,3.14,5.15,7.55,5.59,12.19,5.31,7.55-.46,15.21-1,22.52-2.76,5.37-1.29,7.27-.55,8.87,4.95,1.09,3.73,4.56,8.99,7.66,9.52,10.48,1.77,21.25,1.97,31.92,2.18,2.11.04,6.06-2.48,6.12-3.95.41-9.32,7.02-7.78,12.38-7.26,19.57,1.9,39.1,4.21,58.63,6.44.52.06.94.93,2.75,2.85-11.39.35-21.55-2.56-31.32.8,1.35,1.44,2.72,2.23,4.1,2.25,14.12.24,28.38-2.01,42.26,2.74,1.79.61,4.13-.32,6.21-.63,7.98-1.19,16.21-2.42,24.23-.86,4.58.89,8.49,3.98,12.88,4.8,5.18.97,10.68-.84,15.78-1.63,6.56-1.01,13.17-1.64,19.74-2.49,8.86-1.14,17.73.48,22.81-7.94-1.53-.71-3.28-2.28-4.56-1.97ZM159.14,124.52c-.52-.18-1.02-.43-1.48-.82-.92-.78-2.39-2.38-2.18-3.71,1.79-11.52-5.21-18.11-12.96-24.36-6.46-5.2-12.89-10.51-21.38-11.7-.37.68-.75,1.37-1.12,2.05,2.86,2.16,5.86,4.15,8.54,6.52,5.28,4.68,11.01,9.06,15.41,14.5,6.4,7.9,6.28,17.4,1.01,24.89-5.53,7.86-15.9,11.93-25.02,9.29-11.99-3.47-20.09-11.75-21.17-23.9-1.7-19.27-1.64-38.7-2.03-58.07-.17-8.25,3.06-12.19,8.99-17.39,11.78-10.32,23.65-6.93,34.78-6.2,10.09.66,18.52-2.47,26.33-8.43,4.8-3.66,9.56-7.52,14.84-10.36,12.68-6.84,25.87-7.31,38.32.25,11.14,6.77,17.46,17.46,16,30.43-.87,7.7-4.58,15.56-8.75,22.27-5.08,8.2-11.94,15.3-18.11,22.82-8.96,10.92-14.51,23.01-13.98,37.53.09,2.55-.89,6.61-2.61,7.46-4.82,2.39-10.23,3.75-15.56,4.76-1.31.25-2.69-3.3-3.14-4.16-2.1-4.01-4.56-8.1-8.24-10.86-1.01-.76-2.12-1.41-3.29-1.89-1.05-.43-2.17-.53-3.2-.89ZM129.39,257.14c-.37.12-.75.23-1.14.32-8.49,1.95-17.46-2-24.27-6.86-4.35-3.1-5.41-8.28-2.24-13.37,3-4.81,7.64-7.46,12.68-4.86,6.6,3.4,13.04,7.61,18.48,12.62,5.28,4.87,2.19,10.29-3.51,12.15ZM163.43,241.1c-1.43-.73-2.87-1.43-4.29-2.18-1.39-.74-2.74-1.55-4.11-2.32.15,1.37-.04,2.89.51,4.07,2.07,4.46-.78,4.86-4.83,6.37-3.08-2.21-7.74-3.81-8.88-6.77-1.86-4.83,1.59-8.15,6.79-9.2,2.54-.51,4.95-1.77,7.49-2.15,5.01-.75,9.04,2.51,9.01,7.28-.01,1.64-1.1,3.27-1.7,4.9ZM165.34,217.61c-.83,5.94-4.07,7.47-7.45,6.58-6.97-.7-11.31.13-13.99,5.2-.32.61-3.71.64-4.36-.14-4.72-5.71-4.64-13.4-.2-19.74,4.44-6.34,12.65-9.52,19.31-7.49,6.18,1.89,7.96,6.49,6.69,15.59ZM224.84,253.84c-2.54,1.2-7.22.28-9.66-1.47-2.03-1.46-2.09-5.55-3.2-8.41-.51-1.32-1.43-2.47-2.17-3.7-.59,1.51-1.4,2.97-1.67,4.54-.16.92,1.1,2.31.74,2.92-.93,1.61-2.52,4.24-3.62,4.13-10.18-1.02-20.38-2.15-30.38-4.22-2.22-.46-5.11-4.65-5.21-7.23-.41-10.39.22-20.82.32-31.23.04-3.8.11-10.81-.6-10.91-6.03-.86-11.75-6.96-18.36-1.7-1.7,1.35-4.03,1.89-7.01,3.23,7.72-9.64,14.64-17.99,21.19-26.6,2.52-3.31,7.9-13.2,9.36-17.12,2.15-5.77,10.12-4.31,19.75-6.91,3.06-.83,6.98,3.12,8.52,5.87,10.44,18.72,12.68,38.67,7.01,59.34-.6,2.19-2.97,4.86-6.59,5.67-1.42-2.05-1.57-3.79-2.06-6.05-1.33-6.13-1.66-12.48-2.98-18.62-.54-2.49-2.63-4.65-4.01-6.95-1.19,2.69-3.65,5.54-3.34,8.05.97,8.03,2.71,16,4.66,23.87,1.49,6,6.49,5.13,10.97,4.41,12.25-1.95,22.15,2.82,30.6,11.02,4.83,4.69,4.66,10.05.24,13.73-3.34,2.79-5.75,3.05-7.31-2.09-1.1-3.6-3.27-6.95-5.41-10.1-.54-.8-2.81-.43-4.28-.6.32,1.36.37,2.88,1.04,4.05.9,1.57,2.42,2.77,3.4,4.31,1.86,2.92,4.19,6.82.08,8.76ZM243.23,258.15c-.76,1.7-2.87,1.84-4.48,1.81-2.6-.05-6.57.57-8.91-.77-1.7-.97,1.54-2.18,2.14-2.32,1.46-.33,3-.23,4.44-.64,1.38-.39,2.75-1.02,4.21-1.06s3.35,1.31,2.6,2.98ZM243.4,240.79c-.4-4.03-4.73-9.53-7.98-14.78-.81-1.31.45-2.96,1.91-2.47,6.86,2.28,14.51,9.5,14.92,15.92.15,2.33-2,4.8-3.1,7.2-1.09,2.27-3.73,2.81-4.72,2.09-1.1-.81-.91-6.71-1.04-7.96Z"/>
      <path class="cls-1" d="M101.87,108.75c.2-3.07.74-6.12,1.2-9.17.5-3.34.39-8.9,3.21-11.31,2.79-2.38,3.4,1.4,3.49,3.53.14,3.36-1.35,7.59.76,10.53,1.44,2,2.91.97,3.73-1.03,3-7.31,4.71-8.51,11.21-4.03,5.44,3.75,10.7,8.64,14.15,14.19,6.22,9.99.85,21.69-10.6,24.61-2.33.59-5.5-.35-7.74-1.57-2.78-1.51-5.05-3.73-7.65-5.5-2.1-1.43-4.49-2.36-6.45-4.02-3.76-3.2-5.17-7.83-5.37-12.63-.05-1.21-.03-2.41.05-3.61Z"/>
      <path class="cls-1" d="M163.41,59.71c-3.4,1.45-12.29-5.67-8.77-10.22,3.53-4.56,8.58,1.65,9.6,5.21.86,3,.34,4.52-.83,5.02Z"/>
      <path class="cls-1" d="M295.62,245.33c-3.51,3.45-6.08,6.54-7.09,5.51s-.09-5.79,3.42-9.24c3.51-3.45,8.29-4.29,9.3-3.26s-2.12,3.54-5.63,6.99Z"/>
      <path class="cls-4" d="M238.15,29.58c-2.76.25-5.3,1.78-6.37,5.28-1.13,3.69.37,7.2.22,10.84-.07,1.72-.5,3.3-.84,5-.65,3.22,1.01,5.09,2.99,6.56,6.05,4.46,13.25,2.29,15.35-7.39,1.33-6.15.83-13.26-2.96-17.25-1.87-1.97-5.27-3.32-8.39-3.03Z"/>
      <path class="cls-1" d="M258.16,40.84c-.45-1.42-1.09-2.83-2.14-3.92-1.17-1.22-2.77-1.77-4.44-1.77-3.36-.02-7.03.64-9.67,2.82-.83.69-.71,2.12,0,2.83.83.83,1.99.69,2.83,0,.67-.55,1.54-.87,2.49-1.11,1.11-.28,1.92-.36,3.05-.46.59-.05,1.24-.13,1.83-.05.07,0,.35.07.48.13-.07-.03.31.19.32.18.67.53,1.04,1.37,1.31,2.17.75,2.21.97,4.65.45,6.94-.06.26-.12.53-.22.78-.03.08-.09.21-.22.38-.03.02-.08.06-.14.09-.19.1-.2.12-.54.2-.12.03-.25.06-.38.08-.02,0-.05,0-.1,0-.27.02-.54.03-.8.04-.56,0-1.13,0-1.69-.08-.86-.11-2.06-.5-2.76-1.04-1.05-.82-1.89-1.88-3.29-2.11-1.07-.17-2.15.28-2.46,1.4-.26.95.32,2.29,1.4,2.46.11.02.22.04.32.07.05.02.13.07.15.08.15.13.21.16.5.42.54.5,1.1.98,1.74,1.36,1.38.83,2.94,1.19,4.53,1.36,1.37.14,2.91.15,4.23-.28,1.71-.56,2.84-1.79,3.41-3.48.99-2.95.75-6.55-.18-9.48Z"/>
      <path class="cls-3" d="M198.07,140.09c-7.23,1.96-17.56,5.02-24.95,6.2-1.07.17-1.66,1.5-1.4,2.46.31,1.14,1.39,1.57,2.46,1.4,7.4-1.18,17.9-3.53,25.13-5.49,2.48-.67,1.25-5.24-1.24-4.57Z"/>
    </g>
  </g>
</svg>