<?xml version="1.0" encoding="UTF-8"?>
<svg id="Layer_2" data-name="Layer 2" xmlns="http://www.w3.org/2000/svg" viewBox="0 0 237.09 234.22">
  <g id="Layer_1-2" data-name="Layer 1">
    <g>
      <g>
        <g>
          <path d="M93.67,101.03c3.94.93,5.75,3.5,5.89,7.46.15,4.21-2.52,6.41-5.88,7.76-6.95,2.79-14.44,3.41-21.67,5.09-4.01.93-8.04,1.81-11.61,3.96-7.21,4.35-7.17,12.55.14,16.68,5.43,3.07,11.56,4.17,17.5,5.78,3.66.99,7.35,1.87,10.73,3.66,1.54.82,3.53,1.7,3.83,3.36,1.04,5.66,3.95,3.22,6.84,1.95,13.73-6.04,27.14-12.76,40.7-20.07-3.45-4.26-7.73-5.62-13.32-3.58,1.81-3.06,2.24-3.21,5.2-2.92,2.35.23,4.44,1.78,6.92,1.28-2.06-3.65-1.99-8.28-5.25-11.37-2.37.23-3.96,3.11-6.94,2.14.66-2.27,2.61-2.84,4.03-3.94-1.34-3.98-1.22-8.17-1.85-12.25-2.14,4.64-3.43,9.69-6.64,14.14-1.9-2.44-.35-4.44.19-6.4,1.49-5.45,4.89-10.2,5.94-15.83-1.87-.68-3.74-1.36-5.61-2.04-.29-.14-.57-.27-.86-.41-3.04-.28-4.77-3.19-7.64-3.82-.7,6.98-6.69,13.62.22,21.81-5.83-3.12-6.99-6.62-5.48-12.32.83-3.16,2.76-6.06,2.28-9.54-3.35,1.15-4.72,5.47-8.82,5.48-3.43,0-6.69.88-9.83,2.24.32.57.65,1.13.97,1.7ZM97.43,133.28c-.28,1.13.49,2.58-.93,2.97-1.64.46-2.12-.9-2.45-2.17-.76-2.94-2.25-5.73-1.76-8.9.02-.1,1.05-.27,1.31-.06,2.54,2.16,3.29,5.18,3.83,8.15Z" style="fill: #f5e803; stroke-width: 0px;"/>
          <path d="M78.09,178.39c1.05,1.21,2.1,2.41,3.16,3.62,5.34,3.23,10.68,6.45,16.02,9.68.1.17.2.33.3.5-.16-.12-.33-.24-.49-.36-5.26.17-8.85-3.61-13.56-5.85-1.49,3.92-.78,7.19,2.29,9.72,4.88,4.02,10.7,5.85,16.86,6.93,1.63.29,1.88-.86,2.54-1.5,5.18-5.06,6.09-12.15,2.71-19.7-2.15-4.8-6.13-8.96-5.04-14.9.32-1.75-1.24-1.64-2.24-1.31-1.63.54-3.17,1.37-4.8,2.1.82,1.93,3.16,1.86,4.26,3.17-.29,1.69-1.45,1.29-2.24,1.15-1.59-.27-3.23-2.78-4.57-1.09-1.68,2.12-2.6,4.94-3.49,7.58-.41,1.24,1.02,1.78,2.11,2.06,2.11.53,4.24.99,6.64,1.54-1.69,2.07-3.53,1.51-5.45.89-7.65-2.43-13.81-6.5-16.7-14.46-.4-1.11-.71-3.34-2.57-2.57-1.61.66-.63,2.41-.39,3.8.61,3.52,3.11,6.01,4.66,9.01Z" style="fill: #f5e803; stroke-width: 0px;"/>
          <path d="M149.71,208.68c-.56-4.58-4.22-8.49-2.48-13.67.64-1.91-1.64-2.4-3.32-2.16-9.55,1.37-19.11,2.67-28.62,4.27-4.83.81-6.64,5.28-9.71,8.86,15.24-2.74,29.83-2.96,44.01,2.85l.12-.15Z" style="fill: #f5e803; stroke-width: 0px;"/>
          <path d="M159.29,132.01c5.24-2.92,10.55-5.73,15.95-8.34,11.31-5.45,22.84-10.41,34.28-15.55.74-.33,1.49-.67,2.23-1.01,1.41-.64,2.74-.4,4.12-.47,1.32-.49,2.36-1.85,4.02-1.27,2.85-1.61,5.71-3.21,8.54-4.85,1.29-.74,1.82-1.81,1.21-3.3-.88-2.17-2.34-.79-3.39-.4-1.09.4-1.64,1.87-3.05,1.91-.84,2.48-3.36,2.65-5.2,3.6-18.71,9.62-38.6,16.76-57.14,26.73-26.19,14.08-52.66,27.56-80.04,39.2-.57.24-1.11.63-.88,1.45.93,1.08,1.73.07,2.48-.27,5.94-2.97,12.17-5.47,18.23-8.2,6.14-2.76,12.27-5.53,18.41-8.29,4.14-1.86,8.26-4.08,12.54-5.59,2.24-.79,4.55-1.13,6.62-2.34s16.72-10.59,21.07-13.01Z" style="fill: #8c6239; stroke-width: 0px;"/>
          <path d="M79.93,212.84c3.71,3.07,6.7,6.73,9.04,10.93,2.5.99,4.91-.28,4.11-2.44-2.02-5.44.81-9.67,2.21-14.32.36-1.18,1.99-2.88-.24-3.49-1.72-.47-1.45,1.66-1.76,2.68-1.04,3.43-2.87,6.65-2.69,11.76-5.24-7.93-8.1-15.92-13.93-22.52-1.99,6.74-.8,12.34,3.25,17.4Z" style="fill: #f5e803; stroke-width: 0px;"/>
          <path d="M110.54,215.52c0-.16-.06-.41.02-.46,1.66-1.05,3.76-3.26,4.93-2.85,2.21.78,1.35,3.76,1.63,5.81.47,3.38-.08,6.93,1.87,10.03,1.74,1.07,3.57,1.62,5.12-.15,1.68-1.92-.25-3.27-1.18-4.5-2.71-3.62-3.38-7.7-3.42-12.05-.03-3.04-1.2-3.7-4.09-2.22-4.32,2.22-8.31,5.21-13.22,6.17-.62.12-1.38.24-1.23,1.06.1.53.54,1.29.97,1.4,1.2.31,2.48.34,3.73.49,1.35-.73,2.7-1.46,4.05-2.18.31-.2.62-.4.94-.6l-.11.05Z" style="fill: #f5e803; stroke-width: 0px;"/>
          <path d="M60.02,180.13c-9.44,3.38-18.89,6.75-28.32,10.17-.78.28-1.99.55-1.2,1.93.55.95.98,2.09,2.29,2.13.59.02,1.29-.14,1.79-.46,8.07-5.27,17.36-8.14,25.44-13.77Z" style="fill: #8c6239; stroke-width: 0px;"/>
          <path d="M206.89,97.37c3.72-2.47,6.35-5.16,8.84-8,.7-.8,1.59-1.75.93-2.93-.62-1.11-1.87-1.07-2.96-1.11-3.27-.13-5.46,1.34-6.3,4.54-.59,2.27-.89,4.6-.5,7.51Z" style="fill: #c83002; stroke-width: 0px;"/>
          <path d="M194.1,107.6c-4.71-2.46-8.13-4.3-11.6-6.04-1.19-.6-2.72-1.61-3.23.75-.39,1.82-1.03,4.09,1.84,4.32,3.84.31,7.58,1.79,12.99.97Z" style="fill: #c83002; stroke-width: 0px;"/>
          <path d="M198.38,95.01c0-3.97-.02-7.2,0-10.44.02-2.06-1.1-2.48-2.75-1.84-1.4.54-4.14.31-2.81,3.07,1.46,3.02,2.55,6.34,5.55,9.21Z" style="fill: #c83002; stroke-width: 0px;"/>
          <path d="M133.46,159.13c-.03-.79-.02-1.58-.1-2.36-.68-6.45-2.23-7.25-8.02-3.85.44,1.3,3.42,5.21,4.1,5.79,1.67-1.15,2.54.81,4.02.42Z" style="fill: #f5e803; stroke-width: 0px;"/>
          <path d="M195.24,103.87c.55,2.22,1.61,3.98,3.69,3.84,2.52-.17,2.98-2.38,2.99-4.53,0-2.21-1.37-2.98-3.35-2.94-2.53.05-2.66,2.16-3.33,3.63Z" style="fill: #c83002; stroke-width: 0px;"/>
          <path d="M149.58,208.83c.15.22.3.43.44.65.08-.12.25-.33.22-.35-.16-.17-.36-.3-.55-.45,0,0-.12.15-.12.15Z" style="fill: #f5e803; stroke-width: 0px;"/>
          <path d="M203.62,143.88c8.46-6.45,7.45-15.23-2.39-28.82-9.37,7.72-16.27,17.48-22.27,27.86-4.41,7.63-7.44,15.73-5.6,24.89,2.15,10.73,10.02,17.33,21.01,17.5,8.54.13,16.93-.94,24.24-5.51,16.79-10.51,22.79-30.59,7.49-49.39-5.77-7.09-14.49-10.72-21.04-16.96-.5-.47-1.17-.67-1.6.04-.67,1.12.45,1.66.95,2.37,4.76,6.68,7.55,13.9,6.12,22.26-.57,3.32-1.85,6.02-6.91,5.76ZM208.66,152.49c-4.23,1.81-8.06,1.28-11.15-2.37-4.42-5.21-5.83-15.33-2.86-19.89-.32,18.42,4.67,22.31,14.01,22.25ZM228.84,150.89c-1.5,7.21-5.06,13.17-11.17,17.45-.96.68-2.43,1.54-3.31.17-.79-1.22.65-2.01,1.53-2.5,6.21-3.46,9.54-9.24,12.96-15.13ZM193.57,180.25c-9.2-.32-16.03-6.81-16.83-16.32,4.56,7.18,8.43,14.07,16.83,16.32ZM220.01,155.58c-1.99,5.31-2.46,5.67-6.16,5.82,2.2-2.08,4.18-3.95,6.16-5.82Z" style="fill: #c83002; stroke-width: 0px;"/>
        </g>
        <g>
          <path d="M111.34,91.6c.49,3.47-1.44,6.38-2.28,9.54-1.5,5.7-.35,9.21,5.48,12.32-6.91-8.19-.92-14.83-.22-21.81-.94-2.81-1.88-5.61-2.82-8.42-1.68-.96-2.13-3.5-4.85-3.62.37,3.34,3.49,5.26,3.88,8.36,1.15,1.02,1,2.32.8,3.64Z" style="fill: #110e0b; stroke-width: 0px;"/>
          <path d="M128.95,106.02c.19-.3.38-.6.57-.91.39-1.91.78-3.81,1.17-5.72-.84-2.13,2.39-3.72.8-5.95-1.6.48-1.59,2.22-2.53,3.22l-.58.96s.06.31.06.3c-1.05,5.62-4.44,10.37-5.94,15.83-.54,1.97-2.09,3.96-.19,6.4,3.21-4.45,4.49-9.5,6.64-14.14Z" style="fill: #110e0b; stroke-width: 0px;"/>
          <path d="M126.77,122.21c2.98.97,4.57-1.92,6.94-2.14,4.73-3.48,8.87-.63,13.1,1.23-1.06-3.25-3.64-4.52-6.71-5.16-3.26.03-6.33.89-9.3,2.13-1.42,1.11-3.38,1.67-4.03,3.94Z" style="fill: #110e0b; stroke-width: 0px;"/>
          <path d="M93.6,125.14c-.26-.22-1.29-.04-1.31.06-.49,3.17,1,5.96,1.76,8.9.33,1.26.81,2.63,2.45,2.17,1.42-.4.65-1.85.93-2.97-.54-2.97-1.29-5.98-3.83-8.15Z" style="fill: #110e0b; stroke-width: 0px;"/>
          <path d="M194.65,130.23c-2.98,4.56-1.57,14.68,2.86,19.89,3.09,3.64,6.92,4.18,11.15,2.37-9.34.05-14.33-3.83-14.01-22.25Z" style="fill: #110e0b; stroke-width: 0px;"/>
          <path d="M215.88,166.02c-.88.49-2.31,1.27-1.53,2.5.88,1.37,2.35.5,3.31-.17,6.11-4.28,9.67-10.24,11.17-17.45-3.41,5.89-6.74,11.67-12.96,15.13Z" style="fill: #110e0b; stroke-width: 0px;"/>
          <path d="M176.74,163.93c.81,9.51,7.64,16.01,16.83,16.32-8.4-2.25-12.27-9.15-16.83-16.32Z" style="fill: #110e0b; stroke-width: 0px;"/>
          <path d="M220.01,155.58c-1.98,1.87-3.96,3.74-6.16,5.82,3.7-.15,4.17-.52,6.16-5.82Z" style="fill: #110e0b; stroke-width: 0px;"/>
          <path d="M236.72,147.42c-.13-.82-.25-1.6-.42-2.36-.25-1.16-.59-2.28-1.15-3.43-.8-1.63-1.68-3.21-2.55-4.8-1.51-2.79-2.94-5.64-4.77-8.24-1.88-2.68-4.17-4.89-7.01-6.54-3.38-1.97-6.58-4.2-9.71-6.55-1.58-1.19-3.34-2.32-4.79-3.66,2.13-1.27,4.72-1.91,6.89-3.12,2.68-.98,5.36-1.97,8-3.06,1.56-.65,3.12-1.32,4.65-2.04,1.38-.65,2.94-1.27,4.18-2.17,1.19-.87,1.04-2.3.8-3.61-.24-1.29-.69-2.87-2.14-3.22-1.45-.35-2.7.61-3.82,1.39-1.17.82-2.29,1.69-3.4,2.59-.5.22-.98.56-1.51.63-4.05,1.27-7.58,4.57-12.61,3.76,2.03-4.23,4.46-7.2,7.87-9.31,1.18-1.3,2.36-2.6,3.54-3.91.21-.59.41-1.19.62-1.78.37-4.2-2.61-4.58-5.53-4.49-3.21.1-7.37-1.32-8.39,3.72-.8,3.97-1.39,7.99-2.08,11.96-2.82-.38-2.55-2.16-2.56-3.69-.03-4.4.01-8.8.02-13.2-1.33-.53-2.05-2.13-3.69-2.12-2.14.06-3.82,1.38-5.72,2.09-2.19,1.9.13,3.8,0,5.7,1.38,2.78,2.64,5.63,4.17,8.32,1.03,1.8.32,2.55-1.24,3.14-1.06,1.56-1.26,3.39-1.55,5.28-.71-.28-1.33-.45-1.88-.74-3.18-1.66-5.95-4.18-9.73-4.57-2.65-.27-4.54.44-4,3.54.4,2.27-2,6.08,3.32,5.91,3.68-.12,7.35.72,11.32,2.29-4.28,1.88-8.06,3.55-11.85,5.21-3.77,1.74-7.55,3.47-11.32,5.21-3.84,2.05-7.68,4.1-11.53,6.15-3.21,2.1-10.4,5.86-14.01,7.17-.32-1.55-2.1.21-4.22-3.43-2.47.5-4.57-1.05-6.92-1.28-2.96-.29-3.4-.13-5.21,2.92,5.59-2.04,9.87-.68,13.32,3.58-13.57,7.31-26.97,14.03-40.7,20.07-2.89,1.27-4.56,1.6-6.84-1.95-.91-1.42-2.29-2.54-3.83-3.36-3.38-1.79-7.08-2.67-10.73-3.66-5.94-1.61-12.07-2.71-17.5-5.78-7.31-4.13-7.35-12.33-.14-16.68,3.57-2.15,7.6-3.03,11.61-3.96,7.23-1.68,14.73-2.3,21.67-5.09,3.36-1.35,6.03-3.55,5.88-7.76-.14-3.96-1.95-6.53-5.89-7.46,5.19,9.07,4.48,11.45-4.03,13.59-2.07,1.15-4.36,1.38-6.64,1.64-1.92.31-3.69,1.45-5.74,1.04-.62.08-1.24.17-1.86.25-5.09,1.49-10.18,2.98-15.28,4.47-2.64,1.51-4.89,3.44-6.67,5.91-.4,1.91-.8,3.82-1.2,5.73.5,1.87,1,3.74,1.5,5.61,1.92,2.15,3.93,4.21,6.42,5.72l5.67,2.13c3.88.71,7.84,1.05,11.45,2.84,1.99.34,3.93.85,5.68,1.9,4.33,1.28,6.69,4.92,10.11,7.81-3.51,1.61-6.74,2.65-9.45,4.46-3.48,2.32-5.78,1.88-7.59-1.78-1.25-.28-2.47-.25-3.62.43-.54.76-1.66,1.65-1.53,2.27,1.31,6.38-4.03,6.99-7.68,9-5.38,2.96-11.02,6.4-17,7.97-1.63.43-3.16.96-4.7,1.62s-3.15.92-4.57,1.64c-3.3,1.66-7.82,2.53-10.28,5.46l3.13,4.56c.62.62,1.25,1.25,1.87,1.87.78.78,3.12-.48,3.91-.85,1.35-.64,2.62-1.38,4.03-1.88,9.46-3.3,18.25-8.77,26.59-14.23,2.75-1.8,5.63-3.89,9.11-3.09.66.15,2.46.62,2.79,1.27-1.55-3-4.05-5.49-4.66-9.01-.24-1.39-1.22-3.13.39-3.8,1.86-.77,2.16,1.46,2.57,2.57,2.89,7.97,9.06,12.03,16.7,14.46,1.93.61,3.77,1.18,5.45-.89-2.39-.55-4.52-1.01-6.64-1.54-1.08-.27-2.52-.82-2.11-2.06.88-2.64,1.8-5.45,3.49-7.58,1.34-1.69,2.98.82,4.57,1.09.8.14,1.96.54,2.24-1.15-1.1-1.31-3.44-1.24-4.26-3.17,1.63-.73,3.17-1.56,4.8-2.1,1-.33,2.56-.44,2.24,1.31-1.08,5.95,2.89,10.1,5.04,14.9,3.38,7.55,2.46,14.65-2.71,19.7-.65.64-.91,1.79-2.54,1.5-6.16-1.09-11.98-2.92-16.86-6.93-3.07-2.53-3.78-5.8-2.29-9.72,4.71,2.24,8.3,6.02,13.56,5.85l.09-.07.08-.06s-.04.03-.08.06c-.05.03-.09.07-.09.07.16.12.33.24.49.36-.1-.17-.2-.33-.3-.5-5.34-3.23-10.68-6.45-16.02-9.68-.56.97.7,2.1-.28,3.03-.29,1.21-1.08,2.57-.77,3.59.91,2.89-.02,3.72-2.85,3.7-1.62,0-2.57,1.16-3.11,2.9-1.01,3.23-.83,6.5-.9,9.77-.05,2.22,2.26,4.66,3.44,6.38,1.8,2.6,3.79,5.22,5.8,7.72,1.03,1.27,2.08,2.53,3.13,3.78.96,1.13,1.89,2.5,3.16,3.31,1.56,1.01,2.96-.08,4.58-.22.32-.32.65-.65.97-.97.3-.31.5-1.66.62-2.1.23-.85.27-1.59.02-2.43-.51-1.75-.98-3.34-.58-5.19.38-1.75,2.59-8.61,2.75-9.29.25-1.08,2.33-1.54,2.71-.33.16.49-.4.9-.61,1.27-.91,1.65-1.16,4.45-1.28,6.31-.14,2.29.47,4.42,2.05,6.13.04,0,.08,0,.11,0,.15.23.39.41.75.41,1.3.01,2.41.77,3.75.58,1.98-.28,3.44-1.77,4.91-2.98.83-.68,3.47-3.01,4.47-1.6,1.36,1.93.07,4.94.49,7.11.54,2.75,2,5.57,4.05,7.5.33.31.77.38,1.21.42.83.08,1.65.21,2.48.24.75.03,1.45-.22,2.13-.48.9-.35,1.97-.71,2.62-1.48.71-.84.35-1.94-.06-2.83-.91-1.97-2.78-3.91-3.22-4.76-.48-.92-1.92-5.33-1.92-6.36,0-2.12-.33-4.35,0-6.46.12-.72.4-1.39,1.11-1.69.64-.27,1.4-.25,2.08-.23.53.02,1.06.06,1.59.1.63.05,1.34.23,1.96.19,1.95-.14,3.93-.46,5.72.71,1.97.05,3.94.09,5.7,1.15,2.08.11,3.97.8,5.73,1.89,2.25.17,4.05,2.33,6.53,1.48.18-1.18.37-2.36.55-3.54-1.39-4.7-4.58-8.9-2.45-14.46,1.37-3.56-2.94-3.08-4.65-4.48-1.79.2-3.59.39-5.38.59-8.15,2.93-16.83,3.16-25.19,4.98-1.94.42-2.77-.3-2.78-2.43,0-2.65-.42-5.3-.66-7.94-1.28-4.78-4.24-8.78-6.14-13.26-1.4-3.31-2.74-7.15,1.3-9.64,3.2-1.98,11.8-5.47,15.22-7.09.72-1.12,4.74,4.09,7.26,4.11.55-1.83-3.62-4.95-4.06-6.25,5.8-3.4,7.34-2.6,8.02,3.85.08.78.07,1.57.1,2.36.29.27.58.53.87.8.57.52,1.06-2.69,1.06-2.81,0-.74-1.54-8.5-2.45-8.15,2.5-.97,5-1.97,7.36-3.24,1.49-.8,2.87-1.74,4.21-2.74.07.16.18.3.35.38.61.28,1.83,1.46,2.84,1.83.35.22,1.54.94,1.81.56.31-.45-1.32-3.8-1.99-4.17.82-1.2,1.48-1.83,2.78-2.51,1.81-.95,3.9-1.24,5.76-2.1,2.05-.94,4.04-2.03,5.99-3.16,3.91-2.27,7.71-4.74,11.77-6.73,3.94-1.92,7.62-4.36,11.61-6.18,1.77-.8,4.2-1.91,6.19-1.39,0,2.63-2.73,5.17-4.37,6.94-2.36,2.55-4.51,5.26-6.65,7.99-4.51,5.76-7.71,12.65-9.27,19.79-1.58,7.24-1.48,15.28,2.03,21.97,2.53,4.83,6.93,8.21,12.04,9.96,5.14,1.76,10.73,2.01,16.1,1.39,5.59-.65,11.6-2.11,16.65-4.65,5.83-2.94,10.66-8.1,13.93-13.69,1.74-2.98,3.06-6.2,3.86-9.56.48-1.99.92-3.81,1.07-5.86.16-2.23.04-4.15-.3-6.36ZM34.58,193.9c-.49.32-1.19.49-1.79.46-1.31-.05-1.74-1.18-2.29-2.13-.8-1.38.42-1.65,1.2-1.93,9.43-3.42,18.88-6.79,28.32-10.17-7.95,5.54-17.34,8.49-25.44,13.77ZM85.16,199.86c1.78-.76,3.74.61,5.54,1.36,1.05.44,1.74,1.19,1.6,2.27-.31,2.33-1.06,4.56-3.25,6.31-1.35-3.05-5.34-9.33-3.89-9.94ZM95.3,207.01c-1.4,4.65-4.23,8.88-2.21,14.32.88,2.38-2.69,3.73-4.21,2.26-.49-.48-.83-1.42-1.21-2.01-.46-.71-.93-1.4-1.44-2.08-.97-1.31-2.01-2.56-3.14-3.73s-2.6-2.21-3.61-3.52c-1.76-2.26-3-4.97-3.49-7.8-.25-1.46-.3-2.95-.18-4.42.06-.79.18-1.57.33-2.34.05-.28.68-2.11.55-2.25,5.83,6.6,8.69,14.6,13.93,22.52-.19-5.11,1.65-8.33,2.69-11.76.31-1.02.04-3.15,1.76-2.68,2.23.61.6,2.31.24,3.49ZM122.92,223.4c.93,1.24,2.86,2.59,1.18,4.5-1.55,1.77-3.38,1.22-5.12.15-1.95-3.1-1.39-6.65-1.87-10.03-.29-2.05.57-5.03-1.63-5.81-.78-.28-1.99.63-3.2,1.58-1.65.72-3.25,1.52-4.63,2.72-.69.6-1.42,1.31-2.28,1.71-1.16-.12-2.33-.17-3.44-.46-.43-.11-.87-.87-.97-1.4-.15-.81.61-.93,1.23-1.06,4.91-.96,8.9-3.95,13.22-6.17,2.89-1.49,4.07-.82,4.09,2.22.04,4.35.71,8.43,3.42,12.05ZM115.28,197.12c9.51-1.61,19.07-2.9,28.62-4.27,1.67-.24,3.96.25,3.32,2.16-1.74,5.18,1.92,9.09,2.48,13.68.19.14.39.27.55.44.02.02-.15.23-.22.35-.15-.22-.3-.43-.44-.65-14.18-5.81-28.77-5.59-44.01-2.85,3.07-3.57,4.88-8.04,9.71-8.86ZM207.39,89.87c.83-3.2,3.03-4.68,6.3-4.54,1.09.04,2.35,0,2.96,1.11.66,1.18-.23,2.13-.93,2.93-2.48,2.84-5.12,5.54-8.84,8-.38-2.91-.09-5.23.5-7.51ZM192.84,85.8c-1.33-2.76,1.41-2.52,2.81-3.07,1.64-.64,2.77-.23,2.75,1.84-.03,3.24,0,6.48,0,10.44-2.99-2.87-4.09-6.19-5.55-9.21ZM198.58,100.24c1.98-.04,3.35.74,3.35,2.94,0,2.15-.47,4.36-2.99,4.53-2.09.14-3.14-1.62-3.69-3.84.67-1.48.8-3.58,3.33-3.63ZM181.11,106.63c-2.88-.23-2.23-2.51-1.84-4.32.51-2.36,2.04-1.34,3.23-.75,3.47,1.74,6.89,3.58,11.6,6.04-5.4.82-9.14-.66-12.99-.97ZM82.25,172.96c3.05-1,5.77-2.75,9.25-2.93q-4.73,8.3-9.25,2.93ZM186.31,118.5c-9.74,4.44-19.41,9.09-28.75,14.34-6.22,3.5-11.93,7.87-18.22,11.25-2.03,1.09-4.17,1.98-6.32,2.82-.45.09-.91.17-1.31.35-16.43,7.39-32.86,14.81-49.3,22.19-.75.34-1.55,1.36-2.48.27-.23-.82.32-1.21.88-1.45,27.38-11.64,53.85-25.12,80.04-39.2,18.54-9.97,38.42-17.11,57.14-26.73,1.23-.63,2.74-.93,3.88-1.79.16-.03.33-.08.48-.21.96-.8,1.95-1.58,2.97-2.31.58-.42,2.44-2.13,3.17-1.43.32.31.42,1.17.51,1.58.11.55.34,1.35-.13,1.77-.42.37-1.13.62-1.62.87-.56.29-1.13.57-1.7.85-4.46,2.15-9.12,3.87-13.77,5.57-1.07.35-2.13.82-3.29,1.34-2.48,1.11-4.97,2.22-7.46,3.33-4.91,2.18-9.83,4.36-14.72,6.59ZM218.6,179.8c-7.3,4.57-15.7,5.64-24.24,5.51-10.99-.17-18.86-6.77-21.01-17.5-1.84-9.16,1.19-17.26,5.6-24.89,6.01-10.38,12.91-20.14,22.27-27.86,9.84,13.59,10.85,22.36,2.39,28.82,5.05.26,6.34-2.44,6.91-5.76,1.43-8.36-1.37-15.58-6.12-22.26-.5-.7-1.62-1.24-.95-2.37.43-.72,1.11-.51,1.6-.04,6.55,6.24,15.27,9.87,21.04,16.96,15.3,18.8,9.31,38.88-7.49,49.39Z" style="fill: #110e0b; stroke-width: 0px;"/>
        </g>
        <animateTransform
          attributeName="transform"
          type="translate"
          values="0 0; 0 -10; 0 0; 0 0;"
          dur="2s"
          repeatCount="indefinite"
          />
      </g>
      <path d="M199.83,223.89c-12.04,1.22-23.76,4.65-35.85,5.46-13.21.89-26.41,1.64-39.66.63-8-.61-16.24-.93-24.19-1.88-1.91-.23-3.83-.46-5.74-.69-23.67-.76-47.48.53-70.85,4.45-.87.15-2.68-.22-2.34,1.49.29,1.49,1.85.54,2.81.79.96.25,3.84-1.01,5.03-1.11,1.79-.16,3.59-.02,5.38-.03,4.48-.01,8.94-.26,13.4-.62,9.21-.74,18.39-1.92,27.64-1.9,8.2.02,16.4.58,24.59,1.24,14.77,1.19,29.53,2.7,44.31,1.9,15.74-.85,31.23-3.95,46.82-6.06,8.3-1.12,20.87-4.92,8.62-3.68Z" style="fill: #110e0b; stroke-width: 0px;"/>

      <path d="M122.92,27.41c-.81-.7-1.28-1.69-1.25-2.76.2-6.68-3.99-13.52-12.61-13.52-2.01,0-3.79.38-5.32,1.04-1.95.84-4.2-.25-4.66-2.32-1.16-5.3-5.25-9.84-12.27-9.84s-11.25,4.72-12.33,10.14c-.36,1.81-2.12,2.92-3.94,2.63-.72-.11-1.47-.17-2.27-.17-7.02,0-11.11,4.56-12.27,9.86-.34,1.56-1.71,2.68-3.3,2.68h0c-13.08,0-13.1,20.33,0,20.33h63.78c10.37,0,12.53-12.78,6.45-18.07Z" style="fill: #6f8b9b; opacity: .5; stroke-width: 0px;"/>
      <path d="M48.93,37.54c-3.64,0-6.43,1.32-8.38,3.34-.9-6.24-5.4-11.86-13.55-11.86-9.51,0-14.07,7.67-13.72,15.04-1.23-.69-2.7-1.13-4.45-1.13-10.56,0-11.64,14.69-3.23,17.72.77.57,1.76.93,2.98.93h37.25c.96.23,2,.37,3.12.37,1.23,0,2.35-.16,3.38-.44,1.08-.1,1.95-.48,2.63-1.06,9.34-5.29,7.36-22.91-6.01-22.91Z" style="fill: #fffaf0; stroke-width: 0px;"/>
    </g>
  </g>
</svg>