<?xml version="1.0" encoding="UTF-8"?>
<svg id="Layer_2" data-name="Layer 2" xmlns="http://www.w3.org/2000/svg" viewBox="0 0 247.52 257.93">
  <defs>
    <style>
      .cls-1 {
        fill: #110e0b;
      }

      .cls-1, .cls-2, .cls-3, .cls-4, .cls-5, .cls-6 {
        stroke-width: 0px;
      }

      .cls-2 {
        fill: #f5e803;
      }

      .cls-3 {
        fill: #d4c5b6;
      }

      .cls-4 {
        fill: #fffaf0;
      }

      .cls-5 {
        fill: #c83002;
      }

      .cls-6 {
        fill: #8c6239;
      }
    </style>
  </defs>
  <g id="Layer_1-2" data-name="Layer 1">
    <path class="cls-3" d="M122.92,27.41c-.81-.7-1.28-1.69-1.25-2.76.2-6.68-3.99-13.52-12.61-13.52-2.01,0-3.79.38-5.32,1.04-1.95.84-4.2-.25-4.66-2.32-1.16-5.3-5.25-9.84-12.27-9.84s-11.25,4.72-12.33,10.14c-.36,1.81-2.12,2.92-3.94,2.63-.72-.11-1.47-.17-2.27-.17-7.02,0-11.11,4.56-12.27,9.86-.34,1.56-1.71,2.68-3.3,2.68h0c-13.08,0-13.1,20.33,0,20.33h63.78c10.37,0,12.53-12.78,6.45-18.07Z"/>
    <path class="cls-4" d="M48.93,37.54c-3.64,0-6.43,1.32-8.38,3.34-.9-6.24-5.4-11.86-13.55-11.86-9.51,0-14.07,7.67-13.72,15.04-1.23-.69-2.7-1.13-4.45-1.13-10.56,0-11.64,14.69-3.23,17.72.77.57,1.76.93,2.98.93h37.25c.96.23,2,.37,3.12.37,1.23,0,2.35-.16,3.38-.44,1.08-.1,1.95-.48,2.63-1.06,9.34-5.29,7.36-22.91-6.01-22.91Z"/>
    <g>
      <g>
        <path class="cls-2" d="M90.25,103.09c4.32,1.01,6.3,3.84,6.46,8.18.16,4.62-2.76,7.03-6.45,8.51-7.62,3.06-15.84,3.74-23.76,5.58-4.39,1.02-8.82,1.98-12.73,4.34-7.9,4.77-7.86,13.76.15,18.29,5.95,3.37,12.68,4.57,19.19,6.34,4.01,1.09,8.06,2.05,11.77,4.01,1.69.9,3.87,1.87,4.2,3.69,1.14,6.21,4.33,3.54,7.5,2.14,15.06-6.62,29.76-13.99,44.64-22-3.78-4.67-8.47-6.17-14.6-3.93,1.98-3.35,2.46-3.52,5.71-3.2,2.58.25,4.87,1.95,7.59,1.41-2.26-4-2.18-9.08-5.76-12.47-2.6.25-4.34,3.41-7.61,2.35.72-2.49,2.86-3.11,4.42-4.32-1.47-4.36-1.34-8.96-2.02-13.44-2.35,5.09-3.76,10.63-7.28,15.5-2.08-2.68-.38-4.86.21-7.02,1.64-5.98,5.36-11.19,6.51-17.36-2.05-.75-4.1-1.49-6.15-2.24-.31-.15-.63-.3-.94-.45-3.34-.31-5.24-3.5-8.38-4.19-.77,7.65-7.34,14.94.24,23.92-6.4-3.42-7.66-7.26-6.01-13.51.91-3.46,3.03-6.65,2.5-10.46-3.68,1.26-5.18,6-9.67,6.01-3.76,0-7.34.96-10.77,2.46.36.62.71,1.24,1.07,1.87ZM94.37,138.47c-.31,1.24.54,2.82-1.02,3.26-1.8.5-2.33-.99-2.69-2.38-.84-3.22-2.47-6.28-1.93-9.76.02-.11,1.15-.3,1.44-.06,2.78,2.37,3.6,5.68,4.2,8.93Z"/>
        <path class="cls-2" d="M73.16,187.93c1.15,1.32,2.31,2.65,3.46,3.97,5.86,3.54,11.71,7.07,17.57,10.61.11.18.22.36.33.54-.18-.13-.36-.26-.54-.39-5.77.19-9.7-3.96-14.87-6.41-1.64,4.3-.85,7.88,2.51,10.65,5.35,4.4,11.74,6.41,18.49,7.6,1.79.32,2.07-.95,2.78-1.65,5.68-5.54,6.68-13.32,2.98-21.6-2.35-5.26-6.72-9.82-5.53-16.34.35-1.92-1.36-1.79-2.46-1.43-1.79.59-3.48,1.5-5.27,2.31.9,2.12,3.46,2.04,4.67,3.47-.31,1.85-1.59,1.41-2.46,1.27-1.74-.3-3.54-3.05-5.01-1.19-1.85,2.33-2.86,5.41-3.82,8.31-.45,1.36,1.12,1.95,2.31,2.25,2.32.59,4.65,1.09,7.28,1.69-1.85,2.27-3.87,1.65-5.98.98-8.38-2.67-15.15-7.12-18.32-15.86-.44-1.22-.77-3.66-2.82-2.82-1.77.73-.69,2.64-.43,4.16.67,3.86,3.41,6.59,5.11,9.88Z"/>
        <path class="cls-2" d="M151.69,221.15c-.62-5.02-4.63-9.31-2.72-14.99.7-2.09-1.8-2.63-3.64-2.37-10.47,1.5-20.96,2.92-31.39,4.68-5.29.89-7.28,5.8-10.65,9.71,16.71-3,32.71-3.25,48.26,3.13l.13-.17Z"/>
        <path class="cls-6" d="M162.2,137.07c5.75-3.2,11.57-6.29,17.5-9.15,12.4-5.98,25.05-11.41,37.59-17.06.82-.37,1.63-.73,2.45-1.1,1.54-.7,3.01-.44,4.51-.52,1.44-.54,2.59-2.02,4.4-1.39,3.12-1.77,6.26-3.52,9.37-5.31,1.41-.82,1.99-1.98,1.33-3.61-.97-2.37-2.56-.86-3.72-.44-1.2.44-1.8,2.05-3.35,2.1-.92,2.72-3.69,2.91-5.7,3.95-20.52,10.55-42.33,18.38-62.66,29.31-28.72,15.44-57.75,30.22-87.77,42.99-.62.26-1.22.69-.97,1.59,1.02,1.19,1.89.07,2.72-.3,6.52-3.26,13.35-6,19.99-8.99,6.73-3.03,13.46-6.06,20.19-9.09,4.54-2.04,9.06-4.47,13.75-6.13,2.45-.87,4.98-1.24,7.26-2.57s18.33-11.61,23.1-14.26Z"/>
        <path class="cls-2" d="M75.18,225.71c4.06,3.37,7.35,7.38,9.92,11.99,2.74,1.08,5.39-.31,4.51-2.68-2.21-5.97.89-10.6,2.43-15.71.39-1.29,2.18-3.15-.27-3.82-1.89-.52-1.59,1.82-1.93,2.94-1.14,3.76-3.15,7.29-2.95,12.9-5.75-8.69-8.88-17.46-15.28-24.7-2.18,7.39-.88,13.54,3.56,19.08Z"/>
        <path class="cls-2" d="M108.74,228.64c0-.17-.06-.45.02-.5,1.83-1.15,4.13-3.58,5.41-3.13,2.42.85,1.48,4.12,1.79,6.37.52,3.7-.09,7.6,2.05,11,1.91,1.17,3.91,1.78,5.62-.16,1.84-2.1-.28-3.58-1.29-4.94-2.97-3.97-3.7-8.45-3.75-13.21-.03-3.33-1.32-4.06-4.49-2.43-4.74,2.44-9.11,5.71-14.5,6.77-.68.13-1.52.27-1.35,1.16.11.58.59,1.42,1.07,1.54,1.32.34,2.72.38,4.09.53,1.48-.8,2.96-1.6,4.44-2.4.34-.22.68-.44,1.03-.66l-.12.06Z"/>
        <path class="cls-6" d="M53.34,189.84c-10.35,3.71-20.71,7.4-31.05,11.15-.85.31-2.18.6-1.31,2.12.6,1.05,1.07,2.29,2.51,2.34.65.02,1.42-.16,1.96-.51,8.85-5.78,19.04-8.93,27.89-15.1Z"/>
        <path class="cls-5" d="M214.4,99.09c4.08-2.7,6.97-5.66,9.69-8.77.77-.88,1.74-1.92,1.02-3.22-.68-1.21-2.05-1.17-3.25-1.22-3.58-.15-5.99,1.47-6.9,4.98-.65,2.49-.97,5.04-.55,8.23Z"/>
        <path class="cls-5" d="M200.37,110.3c-5.17-2.7-8.92-4.71-12.72-6.62-1.31-.66-2.99-1.77-3.54.82-.43,1.99-1.13,4.49,2.02,4.74,4.22.34,8.32,1.96,14.24,1.06Z"/>
        <path class="cls-5" d="M205.07,96.49c0-4.35-.02-7.9,0-11.45.02-2.26-1.21-2.71-3.01-2.01-1.54.6-4.54.34-3.08,3.36,1.6,3.31,2.8,6.95,6.08,10.1Z"/>
        <path class="cls-2" d="M133.88,166.81c-.03-.86-.02-1.73-.11-2.59-.75-7.07-2.44-7.95-8.8-4.22.48,1.42,3.75,5.71,4.49,6.35,1.83-1.26,2.79.89,4.41.46Z"/>
        <path class="cls-5" d="M201.63,106.21c.6,2.43,1.76,4.36,4.05,4.21,2.76-.18,3.27-2.61,3.28-4.97,0-2.42-1.51-3.27-3.67-3.23-2.77.06-2.91,2.36-3.65,3.98Z"/>
        <path class="cls-2" d="M151.56,221.31c.16.24.32.47.49.71.09-.13.27-.36.25-.39-.18-.18-.4-.33-.6-.49,0,0-.13.16-.13.16Z"/>
        <path class="cls-5" d="M210.81,150.09c9.28-7.08,8.16-16.7-2.62-31.6-10.27,8.47-17.84,19.17-24.43,30.56-4.84,8.37-8.16,17.25-6.14,27.29,2.36,11.77,10.99,19.01,23.04,19.19,9.36.14,18.57-1.03,26.58-6.04,18.42-11.53,24.99-33.55,8.21-54.16-6.33-7.77-15.89-11.75-23.07-18.59-.54-.52-1.29-.74-1.76.05-.73,1.23.5,1.82,1.05,2.59,5.22,7.32,8.28,15.24,6.72,24.41-.62,3.64-2.03,6.6-7.57,6.32ZM216.34,159.52c-4.64,1.99-8.84,1.4-12.23-2.59-4.85-5.71-6.4-16.81-3.13-21.81-.35,20.2,5.12,24.46,15.36,24.4ZM238.47,157.77c-1.64,7.9-5.55,14.44-12.25,19.14-1.06.74-2.67,1.69-3.63.19-.86-1.34.71-2.2,1.67-2.74,6.81-3.79,10.46-10.13,14.21-16.59ZM199.8,189.97c-10.08-.35-17.57-7.47-18.46-17.9,5,7.87,9.24,15.43,18.46,17.9ZM228.79,162.92c-2.18,5.82-2.7,6.22-6.76,6.38,2.41-2.28,4.58-4.33,6.76-6.38Z"/>
      </g>
      <g>
        <path class="cls-1" d="M206.66,246.6c-13.2,1.33-26.05,5.1-39.31,5.99-14.49.97-28.97,1.8-43.49.69-8.77-.67-17.81-1.02-26.52-2.06-2.1-.25-4.2-.5-6.3-.75-25.95-.84-52.07.58-77.69,4.87-.95.16-2.93-.24-2.56,1.64.32,1.64,2.03.59,3.08.86,1.05.27,4.21-1.1,5.51-1.22,1.96-.17,3.94-.02,5.9-.03,4.91-.01,9.81-.29,14.7-.68,10.09-.81,20.17-2.1,30.31-2.08,8.99.02,17.98.64,26.97,1.37,16.2,1.31,32.38,2.96,48.59,2.08,17.26-.93,34.24-4.34,51.34-6.65,9.11-1.23,18.2-1.91,27.39-1.98,4.3-.03,8.63-.15,12.89.5,3.07.47,7.06,2.1,9.6-.46-13.15-3.33-27-3.46-40.43-2.1Z"/>
        <path class="cls-1" d="M109.62,92.76c.53,3.81-1.58,6.99-2.5,10.46-1.65,6.25-.38,10.1,6.01,13.51-7.57-8.98-1-16.27-.24-23.92-1.03-3.08-2.06-6.15-3.09-9.23-1.85-1.05-2.34-3.84-5.32-3.97.4,3.66,3.83,5.77,4.26,9.17,1.26,1.12,1.09,2.55.87,3.99Z"/>
        <path class="cls-1" d="M128.93,108.57c.21-.33.42-.66.63-.99.43-2.09.85-4.18,1.28-6.27-.92-2.34,2.63-4.08.88-6.52-1.75.53-1.75,2.43-2.77,3.53l-.63,1.05s.06.34.07.33c-1.15,6.17-4.87,11.37-6.51,17.35-.59,2.16-2.3,4.35-.21,7.02,3.52-4.88,4.93-10.42,7.28-15.5Z"/>
        <path class="cls-1" d="M126.54,126.33c3.27,1.06,5.01-2.1,7.61-2.35,5.19-3.81,9.73-.69,14.37,1.34-1.16-3.56-3.99-4.96-7.35-5.65-3.57.03-6.94.97-10.2,2.34-1.56,1.21-3.7,1.84-4.42,4.32Z"/>
        <path class="cls-1" d="M90.17,129.53c-.28-.24-1.42-.05-1.44.06-.54,3.47,1.09,6.54,1.93,9.76.36,1.38.88,2.88,2.69,2.38,1.56-.44.71-2.03,1.02-3.26-.6-3.26-1.42-6.56-4.2-8.93Z"/>
        <path class="cls-1" d="M200.98,135.12c-3.27,5-1.72,16.1,3.13,21.81,3.39,4,7.59,4.58,12.23,2.59-10.24.06-15.71-4.2-15.36-24.4Z"/>
        <path class="cls-1" d="M224.26,174.36c-.96.54-2.54,1.4-1.67,2.74.97,1.5,2.58.55,3.63-.19,6.7-4.7,10.61-11.23,12.25-19.14-3.74,6.46-7.39,12.8-14.21,16.59Z"/>
        <path class="cls-1" d="M181.34,172.07c.89,10.43,8.38,17.55,18.46,17.9-9.22-2.47-13.46-10.03-18.46-17.9Z"/>
        <path class="cls-1" d="M228.79,162.92c-2.17,2.05-4.34,4.1-6.76,6.38,4.06-.16,4.58-.56,6.76-6.38Z"/>
        <path class="cls-1" d="M247.11,153.97c-.14-.9-.28-1.76-.46-2.59-.28-1.28-.65-2.5-1.26-3.76-.87-1.79-1.84-3.52-2.79-5.27-1.66-3.06-3.22-6.18-5.23-9.03-2.07-2.94-4.57-5.36-7.68-7.17-3.71-2.16-7.21-4.61-10.64-7.18-1.74-1.3-3.66-2.54-5.25-4.02,2.34-1.39,5.17-2.09,7.56-3.42,2.94-1.08,5.87-2.17,8.77-3.36,1.72-.71,3.42-1.45,5.1-2.24,1.51-.71,3.23-1.39,4.58-2.38,1.31-.95,1.14-2.52.88-3.95-.26-1.41-.76-3.15-2.35-3.53-1.59-.38-2.96.67-4.18,1.52-1.28.9-2.52,1.85-3.73,2.84-.55.24-1.08.61-1.65.69-4.44,1.39-8.31,5.01-13.83,4.12,2.22-4.64,4.89-7.89,8.63-10.21,1.29-1.43,2.59-2.86,3.88-4.28.23-.65.45-1.3.68-1.95.4-4.61-2.86-5.02-6.06-4.93-3.52.11-8.09-1.45-9.2,4.08-.88,4.36-1.53,8.76-2.28,13.12-3.1-.42-2.79-2.37-2.8-4.05-.03-4.83.01-9.65.03-14.48-1.46-.58-2.25-2.33-4.05-2.32-2.35.06-4.19,1.51-6.27,2.29-2.4,2.09.14,4.17,0,6.25,1.51,3.05,2.89,6.17,4.58,9.12,1.13,1.97.35,2.79-1.36,3.44-1.16,1.71-1.38,3.72-1.7,5.79-.78-.3-1.46-.5-2.06-.81-3.49-1.82-6.52-4.58-10.67-5.01-2.9-.3-4.98.48-4.38,3.88.44,2.49-2.2,6.66,3.64,6.48,4.04-.13,8.06.78,12.41,2.51-4.69,2.06-8.84,3.89-13,5.71-4.14,1.91-8.27,3.81-12.41,5.72-4.21,2.25-8.43,4.5-12.64,6.75-3.52,2.31-11.41,6.42-15.36,7.86-.36-1.7-2.31.23-4.63-3.77-2.71.55-5.01-1.15-7.59-1.41-3.25-.32-3.73-.15-5.71,3.2,6.13-2.24,10.82-.74,14.6,3.93-14.88,8.01-29.57,15.38-44.64,22-3.17,1.4-5,1.76-7.5-2.14-1-1.56-2.51-2.79-4.2-3.69-3.7-1.96-7.76-2.92-11.77-4.01-6.51-1.77-13.24-2.98-19.19-6.34-8.02-4.53-8.06-13.52-.15-18.29,3.91-2.36,8.34-3.32,12.73-4.34,7.93-1.84,16.15-2.52,23.76-5.58,3.69-1.48,6.61-3.89,6.45-8.51-.15-4.34-2.14-7.16-6.46-8.18,5.69,9.94,4.91,12.55-4.42,14.9-2.27,1.26-4.78,1.51-7.29,1.8-2.11.34-4.05,1.59-6.3,1.14-.68.09-1.36.18-2.04.27-5.58,1.63-11.17,3.27-16.75,4.9-2.89,1.65-5.36,3.77-7.32,6.48-.44,2.1-.88,4.19-1.32,6.29.55,2.05,1.1,4.1,1.64,6.15,2.11,2.36,4.31,4.61,7.04,6.27l6.22,2.34c4.25.77,8.6,1.15,12.55,3.12,2.19.37,4.31.93,6.23,2.09,4.75,1.4,7.34,5.39,11.09,8.57-3.85,1.77-7.39,2.9-10.36,4.89-3.82,2.55-6.34,2.06-8.33-1.96-1.38-.3-2.71-.27-3.97.47-.59.84-1.82,1.81-1.68,2.49,1.43,7-4.42,7.67-8.43,9.87-5.9,3.24-12.09,7.01-18.64,8.74-1.78.47-3.46,1.06-5.16,1.78s-3.45,1.01-5.01,1.8c-3.62,1.82-8.58,2.78-11.27,5.99l3.43,5c.68.68,1.37,1.37,2.05,2.05.85.85,3.43-.53,4.28-.94,1.48-.7,2.87-1.52,4.42-2.06,10.38-3.61,20.01-9.62,29.16-15.61,3.01-1.97,6.18-4.27,9.99-3.39.72.17,2.7.68,3.06,1.39-1.7-3.29-4.44-6.02-5.11-9.88-.26-1.52-1.34-3.44.43-4.16,2.04-.84,2.37,1.6,2.82,2.82,3.17,8.74,9.93,13.19,18.32,15.86,2.11.67,4.13,1.29,5.98-.98-2.63-.6-4.96-1.11-7.28-1.69-1.19-.3-2.76-.9-2.31-2.25.97-2.89,1.98-5.98,3.82-8.31,1.47-1.85,3.27.9,5.01,1.19.87.15,2.14.59,2.46-1.27-1.21-1.43-3.78-1.35-4.67-3.47,1.79-.8,3.48-1.72,5.27-2.31,1.1-.36,2.81-.49,2.46,1.43-1.19,6.52,3.17,11.08,5.53,16.34,3.7,8.28,2.7,16.06-2.98,21.6-.72.7-1,1.96-2.78,1.65-6.75-1.19-13.14-3.2-18.49-7.6-3.37-2.77-4.15-6.36-2.51-10.65,5.17,2.45,9.1,6.6,14.87,6.41l.1-.08.09-.07s-.05.04-.09.07c-.05.04-.1.08-.1.08.18.13.36.26.54.39-.11-.18-.22-.36-.33-.54-5.86-3.54-11.71-7.07-17.57-10.61-.61,1.06.76,2.31-.3,3.33-.32,1.32-1.19,2.82-.84,3.94.99,3.17-.02,4.07-3.13,4.06-1.78,0-2.81,1.27-3.41,3.18-1.1,3.54-.91,7.12-.99,10.72-.05,2.43,2.47,5.11,3.77,6.99,1.97,2.86,4.15,5.73,6.36,8.47,1.13,1.4,2.28,2.78,3.44,4.15,1.05,1.24,2.07,2.74,3.46,3.63,1.71,1.11,3.24-.09,5.03-.24.35-.36.71-.71,1.06-1.07.33-.34.55-1.82.68-2.31.25-.93.3-1.74.03-2.67-.56-1.92-1.07-3.66-.63-5.69.42-1.92,2.84-9.44,3.01-10.18.28-1.18,2.55-1.69,2.97-.37.17.54-.44.98-.67,1.39-1,1.81-1.27,4.88-1.4,6.92-.16,2.51.52,4.85,2.25,6.72.04,0,.08,0,.12,0,.16.26.43.45.82.45,1.43.02,2.64.85,4.12.64,2.17-.3,3.77-1.94,5.39-3.27.91-.75,3.81-3.3,4.9-1.75,1.49,2.12.07,5.42.54,7.8.59,3.01,2.2,6.11,4.44,8.23.36.34.85.42,1.33.46.91.08,1.81.23,2.72.26.82.03,1.59-.24,2.34-.53.99-.39,2.16-.78,2.87-1.62.78-.92.38-2.13-.07-3.1-.99-2.16-3.05-4.29-3.53-5.22-.53-1.01-2.1-5.85-2.1-6.98,0-2.33-.36-4.77,0-7.08.13-.79.44-1.52,1.22-1.85.7-.29,1.53-.27,2.28-.25.58.02,1.17.06,1.75.12.69.06,1.47.26,2.15.21,2.14-.15,4.31-.5,6.27.78,2.16.05,4.32.1,6.25,1.27,2.29.12,4.36.88,6.29,2.08,2.47.19,4.44,2.56,7.16,1.62.2-1.29.4-2.59.6-3.88-1.52-5.16-5.02-9.76-2.68-15.85,1.5-3.91-3.23-3.38-5.1-4.91-1.97.22-3.93.43-5.9.65-8.93,3.21-18.45,3.47-27.63,5.46-2.13.46-3.04-.33-3.05-2.66-.01-2.9-.46-5.81-.72-8.71-1.41-5.24-4.65-9.63-6.73-14.54-1.54-3.63-3.01-7.84,1.42-10.58,3.51-2.17,12.94-6,16.69-7.78.79-1.23,5.2,4.48,7.96,4.51.6-2.01-3.97-5.43-4.45-6.85,6.36-3.73,8.05-2.85,8.8,4.22.09.86.07,1.72.11,2.59.32.29.63.59.95.88.62.57,1.17-2.95,1.17-3.08,0-.82-1.68-9.32-2.68-8.94,2.74-1.06,5.48-2.16,8.07-3.55,1.63-.88,3.15-1.9,4.62-3.01.08.17.2.33.38.41.67.31,2,1.6,3.11,2,.38.24,1.68,1.03,1.98.61.34-.49-1.45-4.17-2.18-4.57.9-1.32,1.62-2,3.05-2.76,1.98-1.04,4.28-1.36,6.32-2.3,2.25-1.03,4.43-2.22,6.57-3.47,4.29-2.49,8.45-5.2,12.91-7.38,4.32-2.11,8.35-4.78,12.73-6.77,1.94-.88,4.6-2.09,6.78-1.52.01,2.88-3,5.67-4.79,7.61-2.59,2.79-4.95,5.77-7.29,8.76-4.95,6.32-8.45,13.87-10.16,21.7-1.73,7.94-1.62,16.75,2.23,24.09,2.78,5.29,7.6,9,13.2,10.92,5.63,1.93,11.77,2.21,17.65,1.52,6.13-.72,12.73-2.31,18.26-5.1,6.39-3.22,11.69-8.88,15.28-15.01,1.91-3.27,3.36-6.8,4.23-10.49.52-2.18,1.01-4.18,1.17-6.43.18-2.45.05-4.56-.33-6.98ZM25.45,204.94c-.54.35-1.31.53-1.96.51-1.44-.05-1.91-1.3-2.51-2.34-.87-1.52.46-1.81,1.31-2.12,10.34-3.75,20.7-7.44,31.05-11.15-8.72,6.07-19.01,9.31-27.89,15.1ZM80.91,211.48c1.95-.83,4.1.67,6.08,1.49,1.15.48,1.91,1.3,1.75,2.49-.34,2.56-1.17,5-3.56,6.92-1.48-3.34-5.85-10.23-4.27-10.9ZM92.03,219.31c-1.54,5.1-4.64,9.74-2.43,15.71.97,2.6-2.95,4.09-4.62,2.48-.54-.52-.91-1.56-1.33-2.2-.5-.78-1.02-1.54-1.57-2.28-1.06-1.43-2.21-2.8-3.44-4.09s-2.85-2.43-3.96-3.86c-1.93-2.48-3.29-5.45-3.83-8.55-.28-1.6-.33-3.23-.2-4.85.07-.86.19-1.72.36-2.57.06-.31.74-2.31.61-2.47,6.4,7.24,9.53,16.01,15.28,24.7-.21-5.61,1.81-9.14,2.95-12.9.34-1.12.04-3.45,1.93-2.94,2.45.67.66,2.53.27,3.82ZM122.33,237.28c1.02,1.36,3.13,2.84,1.29,4.94-1.7,1.95-3.7,1.34-5.62.16-2.13-3.4-1.53-7.29-2.05-11-.31-2.25.63-5.52-1.79-6.37-.86-.3-2.18.69-3.51,1.73-1.81.79-3.56,1.67-5.07,2.99-.76.66-1.56,1.44-2.5,1.87-1.27-.13-2.56-.19-3.78-.5-.47-.12-.96-.96-1.07-1.54-.17-.89.66-1.02,1.35-1.16,5.39-1.06,9.76-4.33,14.5-6.77,3.17-1.63,4.46-.9,4.49,2.43.04,4.77.78,9.25,3.75,13.21ZM113.95,208.47c10.43-1.76,20.92-3.18,31.39-4.68,1.84-.26,4.34.27,3.64,2.37-1.9,5.68,2.11,9.97,2.72,15,.21.16.43.3.6.48.02.03-.16.25-.25.39-.16-.24-.32-.47-.49-.71-15.55-6.37-31.55-6.13-48.26-3.13,3.37-3.92,5.35-8.82,10.65-9.71ZM214.95,90.86c.92-3.51,3.32-5.13,6.9-4.98,1.2.05,2.57,0,3.25,1.22.72,1.3-.25,2.34-1.02,3.22-2.72,3.12-5.61,6.07-9.69,8.77-.42-3.19-.1-5.74.55-8.23ZM198.99,86.4c-1.46-3.03,1.54-2.77,3.08-3.36,1.8-.7,3.03-.25,3.01,2.01-.03,3.55,0,7.1,0,11.45-3.28-3.15-4.48-6.78-6.08-10.1ZM205.28,102.23c2.17-.05,3.68.81,3.67,3.23,0,2.36-.51,4.78-3.28,4.97-2.29.15-3.45-1.78-4.05-4.21.74-1.62.88-3.93,3.65-3.98ZM186.13,109.24c-3.15-.25-2.45-2.75-2.02-4.74.55-2.59,2.23-1.47,3.54-.82,3.8,1.91,7.56,3.92,12.72,6.62-5.93.89-10.02-.73-14.24-1.06ZM77.72,181.98c3.34-1.1,6.33-3.01,10.14-3.22q-5.19,9.1-10.14,3.22ZM191.83,122.25c-10.69,4.87-21.28,9.96-31.52,15.72-6.82,3.84-13.09,8.63-19.98,12.34-2.23,1.2-4.57,2.17-6.93,3.09-.5.09-.99.18-1.44.38-18.02,8.11-36.03,16.24-54.06,24.34-.83.37-1.7,1.49-2.72.3-.25-.9.35-1.33.97-1.59,30.02-12.76,59.05-27.54,87.77-42.99,20.33-10.93,42.14-18.76,62.66-29.31,1.34-.69,3.01-1.02,4.25-1.96.18-.03.36-.09.52-.23,1.06-.88,2.14-1.73,3.26-2.53.64-.46,2.68-2.34,3.47-1.57.35.34.46,1.28.56,1.74.12.6.37,1.48-.15,1.94-.46.4-1.24.67-1.78.95-.62.32-1.24.63-1.86.93-4.89,2.36-10,4.24-15.1,6.1-1.18.38-2.33.9-3.61,1.47-2.72,1.22-5.45,2.43-8.18,3.65-5.39,2.39-10.78,4.78-16.14,7.23ZM227.24,189.48c-8.01,5.01-17.21,6.19-26.58,6.04-12.06-.18-20.69-7.42-23.04-19.19-2.01-10.05,1.3-18.93,6.14-27.29,6.59-11.39,14.15-22.09,24.43-30.56,10.79,14.9,11.9,24.52,2.62,31.6,5.54.28,6.95-2.68,7.57-6.32,1.57-9.16-1.5-17.09-6.72-24.41-.55-.77-1.78-1.36-1.05-2.59.47-.79,1.21-.56,1.76-.05,7.18,6.84,16.75,10.82,23.07,18.59,16.78,20.62,10.2,42.63-8.21,54.16Z"/>
      </g>
    </g>
  </g>
</svg>